<?xml version="1.0" encoding="UTF-8"?><svg id="Layer_2" xmlns="http://www.w3.org/2000/svg" width="43.7501" height="65.6865" xmlns:xlink="http://www.w3.org/1999/xlink" viewBox="0 0 43.7501 65.6865"><defs><style>.cls-1{fill:url(#_名称未設定グラデーション_65);}.cls-2{fill:url(#_名称未設定グラデーション_69);}</style><linearGradient id="_名称未設定グラデーション_69" x1="20.4039" y1="-2.6251" x2="29.9486" y2="41.9168" gradientUnits="userSpaceOnUse"><stop offset=".3261" stop-color="#c4d700"/><stop offset="1" stop-color="#5cb531"/></linearGradient><linearGradient id="_名称未設定グラデーション_65" x1="18.026" y1="-4.7957" x2="25.2821" y2="45.9971" gradientUnits="userSpaceOnUse"><stop offset="0" stop-color="#5cb531"/><stop offset=".3012" stop-color="#c4d700"/><stop offset=".5305" stop-color="#fff"/><stop offset=".572" stop-color="#f4f7d0"/><stop offset=".6656" stop-color="#d9e55a"/><stop offset=".7353" stop-color="#c4d700"/><stop offset=".9997" stop-color="#5cb531"/></linearGradient></defs><g id="_レイヤー_2"><path class="cls-2" d="m43.7025,21.0348c-.4751-8.2812-4.9533-16.1612-11.6437-20.3934,5.5624,5.4233,7.8491,12.0604,8.3271,20.3934.7929,13.8234-8.5786,28.5404-24.0892,41.8033.0913.9472.1576,1.8971.2026,2.8484,17.4121-13.5304,28.055-29.8017,27.2032-44.6517Z"/><path class="cls-1" d="m40.6411,21.0348c-.4781-8.333-2.7015-15.2191-8.5823-20.3934C23.494-.6901,12.1331.0638,0,2.7895c11.5088,4.9574,17.1845,15.5779,13.1154,27.1753-1.0664,3.0393-2.7208,5.9114-4.8378,8.548,4.4813,7.4558,7.1958,15.7867,8.0191,24.3253,15.6354-12.9276,25.1372-27.9799,24.3444-41.8033Z"/></g></svg>