<?xml version="1.0" encoding="UTF-8"?><svg id="Layer_2" xmlns="http://www.w3.org/2000/svg" width="44.2757" height="62.2479" xmlns:xlink="http://www.w3.org/1999/xlink" viewBox="0 0 44.2757 62.2479"><defs><style>.cls-1{fill:url(#_名称未設定グラデーション_60);}.cls-2{fill:url(#_名称未設定グラデーション_41);}</style><linearGradient id="_名称未設定グラデーション_41" x1="10.7288" y1="64.2637" x2="12.0902" y2="11.6224" gradientUnits="userSpaceOnUse"><stop offset="0" stop-color="#5cb531"/><stop offset=".6739" stop-color="#c4d700"/></linearGradient><linearGradient id="_名称未設定グラデーション_60" x1="15.7126" y1="64.7605" x2="34.4988" y2="21.2314" gradientUnits="userSpaceOnUse"><stop offset=".1588" stop-color="#c4d700"/><stop offset=".5305" stop-color="#fff"/><stop offset=".572" stop-color="#f4f7d0"/><stop offset=".6656" stop-color="#d9e55a"/><stop offset=".7353" stop-color="#c4d700"/><stop offset="1" stop-color="#5cb531"/></linearGradient></defs><g id="_レイヤー_2"><path class="cls-2" d="m3.364,41.2102C2.6379,28.5513,10.2297,15.1198,23.5013,2.9753c.0104.055.1573.8266.1678.8815-.1839-.9574-.4803-2.8913-.616-3.8568C8.1526,12.7935-.7333,27.5968.0475,41.2102c.4582,7.9888,4.4974,15.7174,11.0631,19.888-4.9506-5.1428-7.2842-11.8273-7.7466-19.888Z"/><path class="cls-1" d="m3.1089,41.2102c.4623,8.0607,2.5433,14.7745,8.0017,19.888l.3155.0685c8.416,1.8261,20.1609,1.3179,32.8496-1.365-12.0663-4.796-18.1134-15.6476-13.9473-27.5215.7715-2.1989,1.8527-4.3094,3.1921-6.3075-5.0792-6.9869-8.4502-14.9532-10.0192-23.2525C10.2297,14.8647,2.3828,28.5513,3.1089,41.2102Z"/></g></svg>