<?xml version="1.0" encoding="UTF-8"?><svg xmlns="http://www.w3.org/2000/svg" xmlns:xlink="http://www.w3.org/1999/xlink" viewBox="0 0 145.31 102.8"><defs><style>.cls-1{isolation:isolate;}.cls-2{fill:url(#_名称未設定グラデーション_82);mix-blend-mode:multiply;opacity:.5;}.cls-3{fill:url(#_名称未設定グラデーション_2);}</style><radialGradient id="_名称未設定グラデーション_82" cx="117.39" cy="-16.68" fx="117.39" fy="-16.68" r="114.28" gradientTransform="translate(0 26.04)" gradientUnits="userSpaceOnUse"><stop offset="0" stop-color="#fff"/><stop offset=".04" stop-color="#fffdee"/><stop offset=".12" stop-color="#fffac3"/><stop offset=".23" stop-color="#fff47d"/><stop offset=".37" stop-color="#ffec1e"/><stop offset=".41" stop-color="#ffea00"/><stop offset=".8" stop-color="#f18d00"/><stop offset=".85" stop-color="#f19000"/><stop offset=".89" stop-color="#f29900"/><stop offset=".93" stop-color="#f5aa00"/><stop offset=".96" stop-color="#f8c100"/><stop offset=".99" stop-color="#fddf00"/><stop offset="1" stop-color="#ffea00"/></radialGradient><radialGradient id="_名称未設定グラデーション_2" cx="113.71" cy="-23.97" fx="113.71" fy="-23.97" r="114.28" gradientTransform="translate(0 26.04)" gradientUnits="userSpaceOnUse"><stop offset="0" stop-color="#fff"/><stop offset=".02" stop-color="#f7f9dd"/><stop offset=".07" stop-color="#e9f0a3"/><stop offset=".12" stop-color="#dee871"/><stop offset=".16" stop-color="#d4e248"/><stop offset=".21" stop-color="#cddd29"/><stop offset=".25" stop-color="#c8d912"/><stop offset=".29" stop-color="#c5d704"/><stop offset=".33" stop-color="#c4d700"/><stop offset="1" stop-color="#5cb531"/></radialGradient></defs><g class="cls-1"><g id="Layer_2"><g id="_レイヤー_2"><g><path class="cls-2" d="M32.98,44.17c-12.66,17.12-14.48,39-6.66,57.3,16.15,3.37,40.95,.77,74.4-12.8-16.84,3.64-55.57,12.23-64.44-8.36-5.54-12.87,17.89-35.47,24.78-41.07,8.47-6.9,18.93-12.6,29.91-16.91-21.22-4.66-44.15,3.14-57.99,21.85Z"/><path class="cls-3" d="M145.31,6.77c-15.53-7.86-39.73-9.25-66.51-2.21C33.78,16.39-1.48,47.51,.05,74.08c1.1,19.25,33.42,33.03,97,7.24-16.84,3.64-55.57,12.23-64.44-8.36-5.54-12.87,17.89-35.47,24.78-41.07C81.92,11.92,123.09,1.95,145.31,6.77Z"/></g></g></g></g></svg>