<?xml version="1.0" encoding="UTF-8"?><svg xmlns="http://www.w3.org/2000/svg" xmlns:xlink="http://www.w3.org/1999/xlink" viewBox="0 0 145.31 95.46"><defs><style>.cls-1{isolation:isolate;}.cls-2{fill:url(#_名称未設定グラデーション_2);}.cls-3{fill:url(#_名称未設定グラデーション_2-2);}.cls-4{fill:url(#_新規グラデーションスウォッチ_83);}.cls-4,.cls-5{mix-blend-mode:multiply;}.cls-5{fill:url(#_名称未設定グラデーション_2-3);opacity:.5;}</style><radialGradient id="_新規グラデーションスウォッチ_83" cx="118.17" cy="10.94" fx="118.17" fy="10.94" r="140.59" gradientUnits="userSpaceOnUse"><stop offset="0" stop-color="#ffea00"/><stop offset="1" stop-color="#f18d00"/></radialGradient><radialGradient id="_名称未設定グラデーション_2" cx="102.75" cy="46.9" fx="102.75" fy="46.9" r="44.76" gradientUnits="userSpaceOnUse"><stop offset="0" stop-color="#fff"/><stop offset=".02" stop-color="#f7f9dd"/><stop offset=".07" stop-color="#e9f0a3"/><stop offset=".12" stop-color="#dee871"/><stop offset=".16" stop-color="#d4e248"/><stop offset=".21" stop-color="#cddd29"/><stop offset=".25" stop-color="#c8d912"/><stop offset=".29" stop-color="#c5d704"/><stop offset=".33" stop-color="#c4d700"/><stop offset="1" stop-color="#5cb531"/></radialGradient><radialGradient id="_名称未設定グラデーション_2-2" cx="119.7" cy="4.82" fx="119.7" fy="4.82" r="140.59" xlink:href="#_名称未設定グラデーション_2"/><radialGradient id="_名称未設定グラデーション_2-3" cx="122.34" cy="6.74" fx="122.34" fy="6.74" r="133.42" xlink:href="#_名称未設定グラデーション_2"/></defs><g class="cls-1"><g id="Layer_2"><g id="_レイヤー_2"><g><path class="cls-4" d="M107.62,49.36c9.36-12.65,12.78-27.91,10.78-42.4-16.16-2.56-40.05,.47-71.68,13.3,16.84-3.64,55.57-12.23,64.44,8.36,4.09,9.49-7.56,24.25-16.73,33.6,4.93-3.46,9.4-7.74,13.19-12.86Z"/><path class="cls-2" d="M114.38,22.49c-5.31-12.33-21.49-14.64-37.2-12.92,13.72-.38,26.75,2.35,31.43,13.22,5.54,12.87-17.89,35.47-24.78,41.07-18.22,14.83-45.62,24.14-67.61,25.98,22.74-.23,53.35-9.93,73.12-26.03,6.88-5.6,30.58-28.46,25.03-41.33Z"/><path class="cls-3" d="M0,88.69c15.53,7.86,39.73,9.25,66.51,2.21,45.02-11.83,80.27-42.95,78.75-69.52-1.1-19.25-33.42-33.03-97-7.24,16.84-3.64,55.57-12.23,64.44,8.36,5.54,12.87-17.89,35.47-24.78,41.07C63.39,83.54,22.21,93.51,0,88.69Z"/><path class="cls-5" d="M34.59,93.32c-5.77,0-11.23-.47-16.26-1.4,21.06-1.04,51.24-9.49,72.37-26.69,3.28-2.67,11.14-9.91,17.4-18.18,8.01-10.57,10.69-19.12,7.99-25.4-4.16-9.66-14.59-14.56-31.01-14.56-3.25,0-6.58,.19-9.87,.51,12.87-3.6,24.66-5.46,34.85-5.46,20.28,0,33.81,7.6,34.49,19.36,1.47,25.56-33.14,55.76-77.15,67.32-11.35,2.98-22.38,4.49-32.8,4.49Z"/></g></g></g></g></svg>