<?xml version="1.0" encoding="UTF-8"?><svg xmlns="http://www.w3.org/2000/svg" width="145.3054" height="95.4602" xmlns:xlink="http://www.w3.org/1999/xlink" viewBox="0 0 145.3054 95.4602"><defs><style>.cls-1{isolation:isolate;}.cls-2{fill:url(#_名称未設定グラデーション_2);}.cls-3{fill:url(#_名称未設定グラデーション_2-2);}.cls-4{fill:url(#_新規グラデーションスウォッチ_83);}.cls-4,.cls-5{mix-blend-mode:multiply;}.cls-5{fill:url(#_名称未設定グラデーション_2-3);opacity:.5;}</style><radialGradient id="_新規グラデーションスウォッチ_83" cx="118.1679" cy="10.9398" fx="118.1679" fy="10.9398" r="140.5941" gradientUnits="userSpaceOnUse"><stop offset="0" stop-color="#ffea00"/><stop offset="1" stop-color="#f18d00"/></radialGradient><radialGradient id="_名称未設定グラデーション_2" cx="101.3226" cy="46.8961" fx="101.3226" fy="46.8961" r="44.7645" gradientUnits="userSpaceOnUse"><stop offset="0" stop-color="#fff"/><stop offset=".0244" stop-color="#f7f9dd"/><stop offset=".0709" stop-color="#e9f0a3"/><stop offset=".1175" stop-color="#dee871"/><stop offset=".163" stop-color="#d4e248"/><stop offset=".2073" stop-color="#cddd29"/><stop offset=".25" stop-color="#c8d912"/><stop offset=".2904" stop-color="#c5d704"/><stop offset=".3261" stop-color="#c4d700"/><stop offset="1" stop-color="#5cb531"/></radialGradient><radialGradient id="_名称未設定グラデーション_2-2" cx="119.6985" cy="4.817" fx="119.6985" fy="4.817" r="140.5941" xlink:href="#_名称未設定グラデーション_2"/><radialGradient id="_名称未設定グラデーション_2-3" cx="120.9126" cy="6.7437" fx="120.9126" fy="6.7437" r="133.4238" xlink:href="#_名称未設定グラデーション_2"/></defs><g class="cls-1"><g id="Layer_2"><g id="_レイヤー_2"><path class="cls-4" d="m107.6204,49.3559c9.3568-12.6518,12.7836-27.9084,10.7821-42.3957-16.1613-2.5575-40.0468.4733-71.6775,13.2992,16.8373-3.6363,55.5733-12.2262,64.4389,8.3574,4.0853,9.4853-7.5644,24.2456-16.7332,33.6018,4.9281-3.4553,9.4039-7.7438,13.1897-12.8627Z"/><path class="cls-2" d="m112.9496,22.4938c-5.3085-12.3251-21.4939-14.6404-37.1953-12.9188,13.7244-.3785,26.746,2.3505,31.4297,13.2249,5.5438,12.8715-17.8926,35.4691-24.7768,41.0739-18.2196,14.8332-45.6173,24.1419-67.6121,25.9777,22.7413-.2285,53.3461-9.9277,73.1227-26.0289,6.8842-5.6046,30.5758-28.4574,25.0318-41.3288Z"/><path class="cls-3" d="m0,88.6868c15.5338,7.8645,39.7304,9.2455,66.5084,2.2112,45.0164-11.8253,80.2734-42.9494,78.7494-69.5176-1.104-19.2477-33.4178-33.0267-97.0021-7.2437,16.8372-3.6364,55.5733-12.2264,64.4388,8.3571,5.5439,12.8715-17.8926,35.4691-24.7768,41.0738C63.388,83.5383,22.2131,93.5075,0,88.6868Z"/><path class="cls-5" d="m33.166,93.3171c-5.7691,0-11.2282-.473-16.2632-1.3964,21.0631-1.0378,51.2388-9.489,72.3684-26.6915,3.2811-2.671,11.1407-9.9083,17.4044-18.1797,8.0062-10.5737,10.6935-19.1204,7.9872-25.4032-4.1597-9.6593-14.5948-14.5568-31.0131-14.5568-3.2548,0-6.5791.1925-9.8655.5089,12.8703-3.5954,24.6638-5.4554,34.8468-5.4554,20.2754,0,33.8133,7.5991,34.4873,19.3604,1.467,25.5604-33.1446,55.7608-77.1536,67.3223-11.3474,2.9805-22.3815,4.4914-32.7987,4.4914Z"/></g></g></g></svg>