<?xml version="1.0" encoding="UTF-8"?><svg xmlns="http://www.w3.org/2000/svg" width="145.3054" height="130.504" xmlns:xlink="http://www.w3.org/1999/xlink" viewBox="0 0 145.3054 130.504"><defs><style>.cls-1{fill:#fff;}.cls-2{fill:url(#_名称未設定グラデーション_47);mix-blend-mode:soft-light;opacity:.64;}.cls-3{isolation:isolate;}.cls-4{fill:url(#_名称未設定グラデーション_82);mix-blend-mode:multiply;opacity:.5;}.cls-5{fill:url(#_名称未設定グラデーション_2);}.cls-6{fill:url(#_名称未設定グラデーション_2-2);}.cls-7{filter:url(#luminosity-noclip);}.cls-8{mask:url(#mask);}.cls-9{fill:url(#linear-gradient);}</style><radialGradient id="_名称未設定グラデーション_47" cx="31.5641" cy="21.6749" fx="31.5641" fy="21.6749" r="102.0734" gradientTransform="translate(0 26.6352)" gradientUnits="userSpaceOnUse"><stop offset="0" stop-color="#fff"/><stop offset=".0403" stop-color="#fffdee"/><stop offset=".1198" stop-color="#fffac3"/><stop offset=".2308" stop-color="#fff47d"/><stop offset=".3679" stop-color="#ffec1e"/><stop offset=".4094" stop-color="#ffea00"/><stop offset="1" stop-color="#f18d00"/></radialGradient><radialGradient id="_名称未設定グラデーション_82" cx="117.3857" cy="-17.2749" fx="117.3857" fy="-17.2749" r="114.284" gradientTransform="translate(0 26.6352)" gradientUnits="userSpaceOnUse"><stop offset="0" stop-color="#fff"/><stop offset=".0403" stop-color="#fffdee"/><stop offset=".1198" stop-color="#fffac3"/><stop offset=".2308" stop-color="#fff47d"/><stop offset=".3679" stop-color="#ffec1e"/><stop offset=".4094" stop-color="#ffea00"/><stop offset=".7995" stop-color="#f18d00"/><stop offset=".8504" stop-color="#f19000"/><stop offset=".8899" stop-color="#f29900"/><stop offset=".9255" stop-color="#f5aa00"/><stop offset=".9589" stop-color="#f8c100"/><stop offset=".9905" stop-color="#fddf00"/><stop offset="1" stop-color="#ffea00"/></radialGradient><filter id="luminosity-noclip" x="21.7709" y="19.4651" width="113.0548" height="115.9029" color-interpolation-filters="sRGB" filterUnits="userSpaceOnUse"><feFlood flood-color="#fff" result="bg"/><feBlend in="SourceGraphic" in2="bg"/></filter><linearGradient id="linear-gradient" x1="80.4978" y1="321.046" x2="80.4978" y2="359.8785" gradientTransform="translate(-2.1995 -296.4356)" gradientUnits="userSpaceOnUse"><stop offset="0" stop-color="#fff"/><stop offset=".1604" stop-color="#c5c2c1"/><stop offset=".3184" stop-color="#938e8d"/><stop offset=".4717" stop-color="#6b6462"/><stop offset=".6193" stop-color="#4b4341"/><stop offset=".7597" stop-color="#352c29"/><stop offset=".8899" stop-color="#271d1a"/><stop offset="1" stop-color="#231916"/></linearGradient><mask id="mask" x="21.7709" y="19.4651" width="113.0548" height="115.9029" maskUnits="userSpaceOnUse"><g class="cls-7"><rect class="cls-9" x="21.7709" y="19.4651" width="113.0548" height="115.9029"/></g></mask><radialGradient id="_名称未設定グラデーション_2" cx="75.5082" cy="21.9134" fx="75.5082" fy="21.9134" r="75.9977" gradientUnits="userSpaceOnUse"><stop offset="0" stop-color="#fff"/><stop offset=".0244" stop-color="#f7f9dd"/><stop offset=".0709" stop-color="#e9f0a3"/><stop offset=".1175" stop-color="#dee871"/><stop offset=".163" stop-color="#d4e248"/><stop offset=".2073" stop-color="#cddd29"/><stop offset=".25" stop-color="#c8d912"/><stop offset=".2904" stop-color="#c5d704"/><stop offset=".3261" stop-color="#c4d700"/><stop offset="1" stop-color="#5cb531"/></radialGradient><radialGradient id="_名称未設定グラデーション_2-2" cx="113.7095" cy="-24.5613" fx="113.7095" fy="-24.5613" r="114.2846" gradientTransform="translate(0 26.6352)" xlink:href="#_名称未設定グラデーション_2"/></defs><g class="cls-3"><g id="Layer_2"><g id="_レイヤー_2"><path class="cls-2" d="m53.0749,118.1041c-21.7359-16.6726-26.2152-48.3109-10.0047-70.6661,3.8567-5.3187,8.5432-9.6198,13.7297-12.8817-6.8845,3.4166-13.0978,8.5298-17.9838,15.2682-16.2106,22.3554-11.7312,53.9938,10.0047,70.6661,16.5647,12.7058,38.3651,13.0401,54.9784,2.5917-15.9559,7.9187-35.5398,6.6688-50.7243-4.9782Z"/><path class="cls-4" d="m32.9811,44.1718c-12.6602,17.1183-14.4803,38.9995-6.662,57.2966,16.1505,3.3709,40.953.7668,74.4043-12.7975-16.8372,3.6363-55.5732,12.2264-64.4388-8.3571-5.5438-12.8714,17.8925-35.4691,24.7767-41.0738,8.4718-6.8972,18.9296-12.5998,29.9053-16.9138-21.2235-4.6561-44.1543,3.1437-57.9855,21.8456Z"/><g class="cls-8"><path class="cls-1" d="m35.7097,60.1461c-.0159-19.2087,19.2439-34.8266,43.0403-34.8481,23.7737-.0278,43.0839,15.5382,43.1115,34.7524.004,19.2047-19.2623,34.8413-43.0482,34.8413-23.7818.0507-43.0892-15.5393-43.1036-34.7456Z"/></g><path class="cls-5" d="m60.7552,34.9541C85.285,14.9833,122.0803,1.6199,144.2935,6.4406c-22.2132-4.8207-62.376,5.2261-86.9058,25.1968-6.8842,5.6048-30.5758,28.4575-25.0319,41.3289,1.414,3.2829,3.4428,5.9136,6.5721,7.7543-1.1796-1.3655-2.1829-2.9133-2.9494-4.6928-5.544-12.8714,17.8925-35.4691,24.7767-41.0737Z"/><path class="cls-6" d="m145.3054,6.7734c-15.5337-7.8645-39.7304-9.2455-66.5084-2.2112C33.7807,16.3875-1.4763,47.5115.0476,74.0798c1.1041,19.2477,33.4179,33.0266,97.0022,7.2437-16.8373,3.6364-55.5733,12.2264-64.4389-8.3572-5.5438-12.8714,17.8926-35.469,24.7768-41.0737C81.9174,11.9219,123.0923,1.9526,145.3054,6.7734Z"/></g></g></g></svg>