<svg xmlns="http://www.w3.org/2000/svg" width="1193.51" height="450.176" viewBox="0 0 1193.51 450.176">
  <path id="txt-future" d="M167.118-87.906c-.966,2.9-3.542,3.542-5.8,3.864l-9.016,1.932-5.8-3.542-25.438,4.83c0-2.576,2.254-3.864,4.508-4.508,3.22-.966-.322-4.186-1.932-3.864-9.338,1.288-22.862,3.542-32.522,4.83l-2.9-2.254,9.982-2.254c-6.44-3.864-13.524.322-16.422-2.576,16.744-27.692,28.658-61.5,47.656-69.23a36.142,36.142,0,0,1,9.016,23.506c3.542.966,7.084,4.83,11.592,5.474,3.542-4.83,6.762-12.558,6.762-22.54,0-31.234-30.59-56.994-52.808-56.994L85.974-201.25c-9.66,5.474-15.134,16.422-19,25.76l-29.946,74.7c-4.508,11.27-1.288,19.642-10.626,21.9l1.932,3.22L9.66-70.2c-.644,5.474-5.8,9.66-9.016,10.948L3.22-43.792c8.372,5.152,9.982,12.88,5.152,23.184C4.186-11.27-1.288,3.542-6.44,13.846c.644,4.186,2.576,8.05,5.152,12.236-2.254,2.576-.644,6.44,3.22,10.3l2.576-2.254c2.254,3.542,4.83,7.084,9.338,5.474L25.76,35.742c2.576-4.83,5.152-9.338,5.152-12.88,0-3.864-2.576-7.728-.322-10.948l2.576,1.61C38.318,2.576,47.334-16.422,52.808-27.048l-1.932-2.9C56.35-39.284,62.146-46.69,70.2-49.91l37.352-3.542c18.032-1.61,47.978-13.524,70.518-20.608l1.61-3.864c-9.016,2.254-16.744,3.542-19.642,0l19.642-5.152c5.152-1.288,6.44-4.186,6.118-7.728ZM155.526-72.772l-9.66,2.9c-1.61-1.288-7.728,0-17.71,2.576-.966.322-.966-2.254,0-2.576,6.118-1.61,9.016-4.508,18.676-5.152C150.7-75.348,153.272-75.348,155.526-72.772ZM17.066-34.132c0,1.288-.966,2.576-2.576,4.186l-1.61-8.372C15.778-36.708,17.066-35.42,17.066-34.132Zm107.226-32.2-9.016,2.254c-.966.322-.644-1.932,0-2.9.966-1.61,5.152-.966,9.016-2.254C124.936-69.552,125.58-66.654,124.292-66.332ZM47.978-31.878c-1.61,0-3.542-1.288-3.542-2.9,0-3.542,8.05-7.728,9.982-8.05ZM36.708-21.9c-1.288-1.61-1.932-5.8-.966-7.728,1.932-4.186,4.83-6.762,7.084-7.728ZM33.81.644,28.658,9.982,26.4,7.728,28.658,3.22A6.722,6.722,0,0,1,33.81.644Zm353.234-152.95c-6.762-.644-7.728-7.728-8.05-15.456-.322-6.44-.966-12.88-2.576-16.422a35.264,35.264,0,0,1-9.338-5.152c-2.9-2.254-5.152-4.83-7.084-4.83-2.576,0-4.508.644-5.152,3.542-1.288,5.152-7.728,23.506-12.88,35.1,5.152-.644,6.44,2.254,3.542,3.864-2.9,1.932-8.05.322-9.016,3.22C310.086-93.7,280.784-44.758,215.1-44.758c.966-2.576,2.254-5.8,3.542-9.016-2.9-.322-4.186-1.61-4.186-3.864,0-3.864,3.22-9.66,5.8-14.49L222.18-70.2c-2.254,4.83-1.932,7.406-.644,9.338,1.932-4.508,4.508-10.626,6.762-15.456h-.322c-1.932,1.288-3.864,2.254-5.8,1.288,1.61-3.22,4.83-6.762,7.728-5.474,1.61-3.864,3.22-7.084,4.508-9.982,3.22-6.762-4.83-12.558,2.9-23.828,1.288-1.932,5.8,1.61,2.576,2.576-1.61,3.542-1.61,5.474.322,8.694,8.372-18.354,21.9-46.368,31.234-63.434v-7.406l-4.508,3.22c-2.576-6.762-12.558-32.844-19.642-33.166-2.9,0-6.118,1.288-9.982,4.508C225.4-172.27,201.25-114.31,186.438-82.11a93.728,93.728,0,0,0-8.694,38.318c0,15.134,5.8,29.946,18.676,37.674l3.542-1.61c4.508,5.474,8.694,14.168,17.71,14.168,2.254,0,1.932-.966,1.61-1.61,0-.966-.322-1.61,1.932-1.61s2.254.644,2.254,1.61c.322.644.322,1.61,2.576,1.61,18.676,0,85.008-9.66,130.088-92.736a6.918,6.918,0,0,0-.644-7.728A334.647,334.647,0,0,1,333.27-62.146l-2.576-3.22C350.658-89.838,351.3-98.532,357.42-98.21l3.542-6.762c-4.186-.322.966-10.626,5.152-18.354l4.508,2.254c3.864.322,6.44-4.508,4.186-5.8-7.728-5.152,1.288-9.982,7.728-9.338ZM248.262-135.24c3.22,3.22-2.254,14.812-4.508,18.032l-4.186-2.576c-.322-.322.322-1.61.644-2.254ZM239.246-3.864c-2.254,0-3.864-.322-5.152-1.932-3.22-3.864,8.372-6.44,12.558.966A58.293,58.293,0,0,1,239.246-3.864Zm91.77-55.384L322-49.266c-3.22-4.186.966-8.372,5.8-13.2Zm-27.37,28.98a149.717,149.717,0,0,1-23.828,15.134l-.644-3.22C290.444-24.472,295.918-30.59,303.646-30.268ZM275.632-12.88a76.205,76.205,0,0,1-18.676,6.762c-.644-7.406,7.084-6.44,12.558-8.372C271.768-15.134,274.666-15.134,275.632-12.88ZM508.438-203.5c-29.946,0-15.778,30.59-48.3,37.352-19.642,3.864-49.588,2.576-62.146,1.288a14.39,14.39,0,0,0-4.508,10.626c0,9.66,5.8,23.828,10.626,31.234,10.3,2.576,11.27-1.932,25.438-1.932h25.116c-16.1,36.708-34.454,84.364-34.454,92.414a12.447,12.447,0,0,0,2.576,6.762c1.288,12.558.644,23.506,9.016,26.4l-1.288,3.542a69.977,69.977,0,0,0,20.93,1.61c3.542-14.49,9.016-31.234,15.134-47.978-2.9-.644-4.508.322-6.118,3.22l-2.576-1.61c2.254-5.474,4.508-11.27,7.406-17.388,1.288,2.576-.644,8.694,2.576,8.694,2.254,0,3.864-7.084,5.474-11.27a23.943,23.943,0,0,0-1.932-9.338c1.61-5.152,1.932-12.236,5.474-12.88,1.932-.322-1.288,6.118,2.254,6.44,3.22.322,8.05-12.558,9.66-19.32l-2.9-1.61c1.932-1.61,5.8-5.474,6.762-8.372,6.762-20.286,10.3-24.472,21.252-25.76,1.932-2.576,4.186-4.186,7.084-3.864v3.542H525.5c26.726-11.592,55.062-9.016,74.382-12.88a6.067,6.067,0,0,1-.644-2.576,2.2,2.2,0,0,1,2.254-2.254A10.774,10.774,0,0,1,606-148.12l.644,1.932a24.927,24.927,0,0,0,5.152-2.254c-2.9-4.83-5.8-13.2-.322-18.032-4.186-11.592-15.456-17.388-29.3-20.93-14.812,1.932-38.64,7.084-59.892,11.592ZM483-89.838l-2.576,5.8L478.492-86.3l3.22-5.8Zm304.29-62.468c-6.762-.644-7.728-7.728-8.05-15.456-.322-6.44-.966-12.88-2.576-16.422a35.264,35.264,0,0,1-9.338-5.152c-2.9-2.254-5.152-4.83-7.084-4.83-2.576,0-4.508.644-5.152,3.542-1.288,5.152-7.728,23.506-12.88,35.1,5.152-.644,6.44,2.254,3.542,3.864-2.9,1.932-8.05.322-9.016,3.22C710.332-93.7,681.03-44.758,615.342-44.758c.966-2.576,2.254-5.8,3.542-9.016-2.9-.322-4.186-1.61-4.186-3.864,0-3.864,3.22-9.66,5.8-14.49l1.932,1.932c-2.254,4.83-1.932,7.406-.644,9.338,1.932-4.508,4.508-10.626,6.762-15.456h-.322c-1.932,1.288-3.864,2.254-5.8,1.288,1.61-3.22,4.83-6.762,7.728-5.474,1.61-3.864,3.22-7.084,4.508-9.982,3.22-6.762-4.83-12.558,2.9-23.828,1.288-1.932,5.8,1.61,2.576,2.576-1.61,3.542-1.61,5.474.322,8.694,8.372-18.354,21.9-46.368,31.234-63.434v-7.406l-4.508,3.22c-2.576-6.762-12.558-32.844-19.642-33.166-2.9,0-6.118,1.288-9.982,4.508C625.646-172.27,601.5-114.31,586.684-82.11a93.728,93.728,0,0,0-8.694,38.318c0,15.134,5.8,29.946,18.676,37.674l3.542-1.61C604.716-2.254,608.9,6.44,617.918,6.44c2.254,0,1.932-.966,1.61-1.61,0-.966-.322-1.61,1.932-1.61s2.254.644,2.254,1.61c.322.644.322,1.61,2.576,1.61,18.676,0,85.008-9.66,130.088-92.736a6.918,6.918,0,0,0-.644-7.728,334.658,334.658,0,0,1-22.218,31.878l-2.576-3.22C750.9-89.838,751.548-98.532,757.666-98.21l3.542-6.762c-4.186-.322.966-10.626,5.152-18.354l4.508,2.254c3.864.322,6.44-4.508,4.186-5.8-7.728-5.152,1.288-9.982,7.728-9.338ZM648.508-135.24c3.22,3.22-2.254,14.812-4.508,18.032l-4.186-2.576c-.322-.322.322-1.61.644-2.254ZM639.492-3.864c-2.254,0-3.864-.322-5.152-1.932-3.22-3.864,8.372-6.44,12.558.966A58.292,58.292,0,0,1,639.492-3.864Zm91.77-55.384-9.016,9.982c-3.22-4.186.966-8.372,5.8-13.2Zm-27.37,28.98a149.717,149.717,0,0,1-23.828,15.134l-.644-3.22C690.69-24.472,696.164-30.59,703.892-30.268ZM675.878-12.88A76.205,76.205,0,0,1,657.2-6.118c-.644-7.406,7.084-6.44,12.558-8.372C672.014-15.134,674.912-15.134,675.878-12.88ZM934.122-113.666c11.914-10.3,20.93-19.32,29.624-27.048,2.576-2.254,4.186-7.406,4.186-11.27,0-7.406-2.576-11.914-9.016-18.032-.644,3.542-3.542,3.542-6.118,1.61a10.38,10.38,0,0,0,2.576-4.508l-6.118-2.576c0,4.186-5.152,4.186-9.66,2.9l2.254-5.152A65.154,65.154,0,0,0,923.5-180c-11.27,0-24.15,5.152-34.132,9.338-4.83-9.982,3.864-32.522-22.54-32.522-31.556,47.334-84.364,163.254-84.364,180,0,6.118,10.626,3.22,2.9,8.372l4.83,13.2C792.764,5.152,801.136,10.3,807.254,10.3c7.084-7.084,15.778-12.236,17.71-19.32,1.61-6.118-4.508-14.49-2.576-18.676C826.9-40.25,840.1-66.01,848.47-77.6c19.32,9.982,62.468,71.484,78.246,86.94,8.372,8.372,22.218,14.168,34.454,18.354,24.15,0,54.74-16.1,71.806-31.878a18.252,18.252,0,0,0-3.22-4.186c-9.982,6.762-22.862,16.1-36.064,20.608-1.61.322-5.474-1.288-2.9-2.254,11.914-4.186,24.15-10.948,27.37-13.524,1.932-1.288-4.508-1.932-8.694-1.932l-.644-.644c6.118-2.254,11.914-3.864,18.032-5.474-2.576-3.22-7.728-7.084-11.27-8.05C1008.5-17.71,992.4-13.2,977.27-13.2c-31.234,0-65.044-45.724-95.634-73.738,9.66-9.016,19-14.49,23.828-7.728,16.422-9.66,11.27-13.846,25.116-22.54Zm3.542-61.824-1.61,2.254-10.3-1.61C928-176.134,934.122-176.778,937.664-175.49ZM986.608,11.592c.966.644,1.61,2.254,3.22,2.254v.322A111.688,111.688,0,0,1,971.8,19c-7.406-2.254-4.186-5.474.322-4.186ZM901.6-92.414c-1.61-3.22-7.084-1.288-10.626,1.288l1.932,2.9Zm-72.772,42.5L819.49-31.556l-1.61-3.864,9.338-17.066Zm332.3-108.192c-.322-1.932-2.254.322-3.542.966-9.016,4.186-17.066,6.44-26.726,10.3-2.254-9.66,6.762-2.576,19.642-14.168.644-.644,0-1.288-.644-1.288-4.508-.644-12.236-3.864-15.778-3.864s-6.44,1.932-8.05,1.932l-2.9-6.118c-7.084,0-22.54-1.61-28.014-2.9,4.508-8.694,6.118-16.1,5.8-23.184-4.186-1.288-21.252-6.118-27.37-6.118-11.27,0-20.608,24.794-36.708,22.862-5.8,8.694-6.118,16.422-4.508,24.472-23.506,49.266-43.148,78.568-43.792,102.4C987.252-5.8,1013.978,11.27,1051.652,11.27c19.642,0,46.69-9.66,67.62-17.71a15.807,15.807,0,0,0,9.016-7.084c1.61-3.22-.644-2.254-1.61-1.932C1110.9-9.982,1093.19-3.864,1080.31-.322c-6.118,1.61-13.2,1.61-18.032-.644,18.032-4.508,38-9.982,54.1-15.456.966-.322,1.61-.966.644-1.288-2.254-1.288-5.8-3.542-7.728-4.83l21.9-8.05c2.576-1.288,7.406-3.542,6.762-5.152-.322-.966-1.61-.644-2.576-.322-16.1,5.152-40.894,13.524-61.824,19.32-4.508,1.288-6.118-6.44-10.948-5.8,0,1.932-2.9,3.864-5.152,3.864l-1.932-3.22c-9.338,2.254-24.472,5.474-34.454-1.932.322-7.406,7.728-42.826,16.1-46.368,16.1-7.084,64.078-14.812,83.72-18.032l2.254-7.084c-3.22-1.61-4.83-4.83-3.542-8.372-6.762-11.592-9.66-14.812-19-14.812s-36.064,10.948-48.944,12.236c5.474-8.694,9.982-16.1,13.524-21.9,28.336-8.05,58.282-9.016,87.584-22.218C1155.98-152.95,1161.776-154.882,1161.132-158.1Zm-26.726-.966-5.8,2.576-.966-3.864C1129.576-161,1134.084-160.678,1134.406-159.068ZM1022.35-62.146c.644-3.22,1.932-5.152,6.118-4.83-1.288,3.22-3.864,5.8-5.8,8.372h-.322Zm-3.22,27.37-1.61,8.694c-2.576-1.932-2.254-6.118-.966-11.914Zm96.6-1.932c.644-.966.322-1.932-.966-1.288a263.15,263.15,0,0,1-41.538,12.88c3.864,6.118,15.134,1.61,24.15-5.152C1103.494-29.946,1111.866-32.2,1115.73-36.708ZM1059.7-127.834l-5.474,9.016-4.186.966,5.474-9.016Zm-11.592,14.49-3.22,7.406-4.186.644C1041.67-108.836,1045.856-113.344,1048.11-113.344Zm-23.184,56.672-4.508,15.134-2.254-2.9,3.542-11.914Z" transform="translate(43.022 409.66) rotate(-10)" fill="#fff" style="mix-blend-mode: overlay;isolation: isolate"/>
</svg>
