<svg xmlns="http://www.w3.org/2000/svg" width="767.377" height="200.2" viewBox="0 0 767.377 200.2">
  <g id="txt-catch" transform="translate(383.688 100.1)">
    <g id="Group_99" data-name="Group 99" transform="translate(-383.689 -100.1)">
      <g id="Group_96" data-name="Group 96" transform="translate(-0.001 0.023)">
        <g id="Group_94" data-name="Group 94">
          <path id="Path_152" data-name="Path 152" d="M28.988,84.457c1.133,6.119,3.292,8.759,7.153,10.679,4.613,2.16,12.6,3.961,30.117,3.961a417.855,417.855,0,0,0,46.734-3.12c.644-.121.4,1.2-.164,1.44-3.164,1.439-4.4,2.52-5.762,5.279-1.321,2.64-1.812,3-3.7,3.24-11.423.721-23.194,1.08-33.993,1.08-22.8,0-32.529-2.28-37.4-6.36-3.893-3.48-5.779-8.52-5.82-16.32a157.224,157.224,0,0,1-19.161,17.04c-1.365,4.08-2.4,5.281-3.722,5.281-1.44,0-2.269-3-3.268-12.121a53.706,53.706,0,0,0,7.637-2.52,66.614,66.614,0,0,0,12.448-6.839l11.575-31.8h-6.6a39.194,39.194,0,0,0-8.345.84l.46-4.56a45.441,45.441,0,0,0,8.977.72h5.76c5.368-4.2,6.143-4.68,6.863-4.68.84,0,1.265.48,4.078,3.96,1.232,1.56,1.374,2.16,1.112,2.879-.305.841-.8,1.2-4.627,3.481Zm14.488-64.2c.11-4.92-1.109-10.8-4.1-15.12-.229-.36.753-1.08,1.19-.96,10.962,3.84,14.636,10.56,12.627,16.08-1.179,3.24-4.017,5.76-7.017,5.76C44.139,26.017,43.3,24.7,43.476,20.257ZM116.982,41.5c4.594-3.721,5.368-4.2,6.088-4.2.96,0,1.386.479,3.566,3.72,1.036,1.44,1.134,2.16.871,2.879-.349.96-1.047,1.561-4.212,3l-3.406,9.36c-7.513,20.64-8.069,23.161-9.38,26.761a12.892,12.892,0,0,1-6.143,7.32,14.267,14.267,0,0,1-6.251,1.679c-1.441,0-1.833-.239-1.418-2.04.524-2.759-.043-3.839-7.656-6-.556-.121.043-1.44.644-1.44,5.509.359,8.509.359,10.549.359a2.382,2.382,0,0,0,2.618-1.919L116.13,44.5H64.292L58.7,59.856C52.63,76.537,50.348,83.137,48.689,87.7c-.918,2.52-3.078,3.839-6.2,3.839-2.521,0-3.327-1.08-2.541-3.239,1.135-3.12,3.318-7.8,8.3-21.48,5.633-15.48,8.134-22.68,10.526-30.24a55.137,55.137,0,0,1,7.689,4.92h.72L74.7,20.856a179.107,179.107,0,0,0,6.05-18.6A49.119,49.119,0,0,1,88.61,6.7h30.478c4.594-3.72,5.445-4.08,6.165-4.08.84,0,1.429.36,3.773,3.48,1.276,1.44,1.374,2.16,1.112,2.881-.349.96-1.256,1.8-4.3,3.239L115.182,41.5Zm-47.8,36.719c-.786,2.16-2.74,3.241-5.379,3.241-2.4,0-3.054-.84-2.355-2.761.568-1.56,1.845-4.08,5.295-13.559a109.782,109.782,0,0,0,4.3-13.8A38.1,38.1,0,0,1,78.36,55.3H94.08c3.972-3,4.7-3.36,5.422-3.36.84,0,1.43.36,3.228,3,1,1.2,1.222,1.919.959,2.64-.305.84-.84,1.319-3.851,3l-1.267,3.48c-2.795,7.68-3.9,11.039-4.291,12.119-.83,2.281-2.663,3.361-5.543,3.361-2.28,0-2.738-.721-1.952-2.881l.393-1.08H70.139ZM93.467,58.3H76.428l-5.2,14.28H88.27Zm-2.4-28.679A90.779,90.779,0,0,0,94.54,18.1a61,61,0,0,1,7.154,4.08h12.479L118.716,9.7H86.678L75.1,41.5H86.743ZM107.142,41.5l5.94-16.32H100L94.063,41.5Z"/>
          <path id="Path_153" data-name="Path 153" d="M190.756,56.736c-4.987,6.12-10.41,12.121-16.151,18a253.066,253.066,0,0,1-21.5,20.16c17.411-.36,35.258-1.92,53.072-3.72a58.607,58.607,0,0,0-10.29-20.519c-.306-.48,1.047-1.56,1.517-1.2,17.21,10.081,24.329,23.16,20.966,32.4-1.267,3.48-3.81,5.52-6.57,5.52-2.519,0-3.4-1.2-3.761-5.16a64.841,64.841,0,0,0-1.187-8.279c-20.662,4.679-40.954,7.68-72.032,10.319-2.14,3.24-3.449,4.2-4.649,4.2-1.441,0-1.527-2.4.267-13.92a109.3,109.3,0,0,0,13.341.6c1.679,0,3.239,0,5.083-.12,5.871-6.239,11.35-12.72,16.631-19.32a206.981,206.981,0,0,0,13.741-18.96H147.319a64.454,64.454,0,0,0-9.263.721l.46-4.56a54.5,54.5,0,0,0,9.654.84h37.679l8.866-24.36H168.2a49.105,49.105,0,0,0-9.142.72l.46-4.56a52.273,52.273,0,0,0,9.534.84h26.759l2.839-7.8c2.708-7.44,4.335-12.24,5.514-16.8,12.283,1.2,13.374,2.16,12.894,3.48-.306.84-1.584,2.04-5.544,3.36l-6.464,17.76h23.28c7.922-6.6,8.979-7.2,9.7-7.2.841,0,1.463.6,5.486,5.04,1.766,2.4,1.941,3.24,1.679,3.96a1.826,1.826,0,0,1-2,1.2H203.955l-8.867,24.36h31.319c8.533-6.96,9.591-7.56,10.431-7.56.721,0,1.342.6,5.626,5.64,1.931,2.279,2.225,3.12,1.963,3.839s-.873,1.08-2.072,1.08Z"/>
          <path id="Path_154" data-name="Path 154" d="M301.983,51.678c3.2,0,5.427,1.3,6.408,4.1,1.072,3.1.171,7.5-1.431,11.9a90.462,90.462,0,0,1-11.616,21.2,55.042,55.042,0,0,1-12.459,12.8c-4.156,2.9-7.438,4.5-10.539,4.5-2.3,0-3.081-.6-2.754-2.6a5.189,5.189,0,0,0-.189-3.6c-.908-1.9-2.018-3.8-3.507-6.3a1.033,1.033,0,0,1-.136-1,2.08,2.08,0,0,1,1.4-1.1,1.213,1.213,0,0,1,.918.5,68.069,68.069,0,0,0,6.044,5.1,5.038,5.038,0,0,0,2.645.7,7.613,7.613,0,0,0,4.492-1.9c4.574-3.5,8.385-8.2,12.051-13.6a91.17,91.17,0,0,0,8.787-17c1.6-4.4,2.012-6.9,1.358-8.4-.528-1.3-1.483-1.7-3.683-1.7a34.064,34.064,0,0,0-7.337,1.2c-5.429,6.4-10.522,12.7-15.634,18.5-8.876,10.1-16.579,18.9-25.327,28.1a5.621,5.621,0,0,1-4.228,2c-1.8,0-2.764-1.2-2.181-2.8a9.485,9.485,0,0,1,2.646-3.7c9.14-8.9,17.816-17.9,26.164-27.1,4.384-4.9,8.077-9,11.605-13.2-4.173,1.3-8.656,2.9-11.993,4.1a16.661,16.661,0,0,0-3.446,1.5,5.243,5.243,0,0,1-2.9,1.1q-2.1,0-3.626-2.4c-1.337-2.1-2.09-4.7-1.252-7,.4-1.1,1.373-2.4,1.873-2.4.4,0,.527.2.772.9.963,2.3,1.953,3.7,3.554,3.7,2.1,0,4.082-.5,7.673-1.3,3.791-.8,7.956-1.8,13.229-3.1,3.675-4.6,6.494-8.5,8.9-12.1a16.015,16.015,0,0,0,2.118-3.9c.328-.9.311-1.4-.662-2.3a9.919,9.919,0,0,0-3.853-1.5c-.929-.2-1.255-.4-1.074-.9s.928-.9,1.774-1.3a10.42,10.42,0,0,1,12.363,3.4,3.207,3.207,0,0,1,.4,3.3,4.2,4.2,0,0,1-2.738,2.3,11.6,11.6,0,0,0-3.564,3.2c-2.183,2.7-4.638,5.6-7.167,8.7A34.579,34.579,0,0,1,301.983,51.678Zm28.593,30.8a3.216,3.216,0,0,1-2.5-1.1,4.149,4.149,0,0,0-3.3-1.1c-3.2,0-6.773.2-11.483.5-.937.1-1.182-.6-.927-1.3a1.885,1.885,0,0,1,1.537-1.2,111.983,111.983,0,0,0,12.22-2.8c1.345-.4,1.855-.7,2.255-1.8.655-1.8.393-5.2-.6-7.7a25.271,25.271,0,0,0-7.179-10.5,1.4,1.4,0,0,1-.491-1.4,2.027,2.027,0,0,1,1.864-1,1.47,1.47,0,0,1,.828.2,23.653,23.653,0,0,1,10.543,9.5c2.6,4.4,4.506,9.6,2.395,15.4C334.648,81.178,332.475,82.477,330.576,82.477Z"/>
          <path id="Path_155" data-name="Path 155" d="M384.907,37.05a10.953,10.953,0,0,1-.852-9.2c.327-.9.837-1.2,1.237-1.2.5,0,.727.2.9,1.1,1.026,4.6,4.543,7.3,9.152,9.2,1.908.8,3.781,1.7,4.735,3.2a4.4,4.4,0,0,1,.536,4.3,4.273,4.273,0,0,1-3.719,2.8,7.63,7.63,0,0,1-2.919-.5,12.756,12.756,0,0,0-4.582-.6,45.7,45.7,0,0,0-13.656,2.9c-1.855.7-3.119,1.7-3.484,2.7a6.174,6.174,0,0,0-.181,2.7,10.889,10.889,0,0,1-.765,4.3,75.906,75.906,0,0,1-3.248,7,139.756,139.756,0,0,0-6.541,14.4c-.145.4-.155.7.245.7a2.684,2.684,0,0,0,1.419-.6,169.784,169.784,0,0,1,16.676-9c8.456-4,14.448-5.9,20.648-5.9,6.9,0,11.5,2.2,13.563,5.6,2.036,3.2,2.189,6.9.7,11-3.312,9.1-11.978,15.6-23.417,20.1a102.948,102.948,0,0,1-34.1,6.6c-1.1,0-1.892-.3-1.564-1.2a2.745,2.745,0,0,1,2.046-1.5c10.147-1.5,21.93-4.2,31.131-8.6,9.676-4.6,16.278-10.1,18.607-16.5,1.456-4,1.348-7-.116-9.3-1.472-2-4.472-3.1-8.572-3.1-4.6,0-9.483,1.6-14.766,4.3a103.328,103.328,0,0,0-15.949,10.3c-4.238,3.4-6.738,5.6-7.994,7.4-1.291,1.9-2.246,2.6-3.847,2.6-1.3,0-2.235-1-2.744-2.9a9.63,9.63,0,0,1,.51-5.8c2.293-6.3,5.66-12.8,9.825-20.4a51.345,51.345,0,0,0,3.566-7.6c.4-1.1.711-2.5,1.184-3.8.946-2.6,3.1-4.4,6.011-5.8a87.967,87.967,0,0,1,14.421-5A12.978,12.978,0,0,1,384.907,37.05Z"/>
          <path id="Path_156" data-name="Path 156" d="M505.7,53.5a48.427,48.427,0,0,0,12.918,24.839c6.554,6.721,15.813,11.28,25.7,13.8.436.12-.033,1.08-.557,1.2-3.9.84-5.5,1.92-9.154,6.36-.961,1.321-1.616,1.8-2.576,1.8-.6,0-1.625-.48-3.587-1.681-7.155-4.08-12.456-9.959-16.62-16.319-4.11-6.841-7.117-15.72-8.324-27.241-5.4,15.481-16.391,46.681-17.789,50.521-1,2.759-3.285,4.08-7.124,4.08-2.88,0-3.687-1.08-2.769-3.6,1.484-4.08,10.514-27.24,17.382-45.12-19.326,18.48-41.377,31.919-63.9,39.719-.97.36-1.122-1.2-.228-1.68C452.3,88.777,474.807,72.1,491.656,53.5H460.217a75.488,75.488,0,0,0-9.861.72l.459-4.56a52.4,52.4,0,0,0,10.374.84h35.879l8.474-23.28h-27a58.07,58.07,0,0,0-9.741.72l.459-4.561a62.2,62.2,0,0,0,10.254.841h27.119L509.3,16.9c3.32-9.12,4.161-11.76,5.177-16.2,11.519,1.32,12.741,1.92,12.173,3.48-.393,1.08-1.418,1.92-5.227,3.48l-6.027,16.56h24.239c6.94-5.88,8.075-6.36,8.795-6.36.84,0,1.625.48,5.539,4.56,1.9,2.04,2.236,2.76,1.93,3.6a1.921,1.921,0,0,1-2,1.2H514.3L505.828,50.5h32.519c7.431-6.24,8.489-6.84,9.209-6.84.84,0,1.581.6,5.725,5.04,1.973,2.16,2.268,3,2.007,3.72s-.754,1.08-1.955,1.08Z"/>
          <path id="Path_157" data-name="Path 157" d="M623.545,59.736a43.252,43.252,0,0,0,14.4,23.4c6.664,5.759,15.137,9.839,24.9,12.36.438.119-.032,1.079-.556,1.2-3.862.721-5.663,2.04-9.2,6.481-1.036,1.2-1.69,1.679-2.531,1.679-.72,0-1.984-.48-3.948-1.679a60.379,60.379,0,0,1-15.79-14.641c-4.634-6.72-7.981-15-9.318-26.16-4.553,12.84-14.032,40.2-15.736,44.881-1,2.759-3.4,4.08-7,4.08-3,0-3.807-1.081-2.889-3.6,1.441-3.961,10.034-25.921,15.754-40.32-17.885,17.16-41.823,30.839-63.435,37.8-.927.239-1.123-1.2-.229-1.68,23.185-11.281,42.661-24.241,61.181-43.8H576.507a61.149,61.149,0,0,0-9.862.721l.46-4.56a64.762,64.762,0,0,0,10.374.839h37.559l12.1-33.239H595.1a59.457,59.457,0,0,0-8.781.72l.5-4.68a41.667,41.667,0,0,0,9.25.96h32.159l2.141-5.879A125.923,125.923,0,0,0,635.095-.023c10.919,1.32,12.664,1.8,12.053,3.48-.393,1.08-1.375,1.8-5.182,3.36L636.987,20.5h27c7.792-6.24,8.85-6.84,9.57-6.84.84,0,1.461.6,5.486,5.04,1.809,2.28,2.147,3,1.885,3.72s-.754,1.08-2.073,1.08H635.9L623.8,56.736h6.6a175.149,175.149,0,0,0,17.886-19.8,72.855,72.855,0,0,0,6.9-9.72c7.711,4.2,9.663,5.76,9.183,7.08-.612,1.68-1.866,2.16-5.826,2.16a175.943,175.943,0,0,1-24.661,20.279h23.4c7.43-6.239,8.445-6.719,9.165-6.719.84,0,1.625.48,5.933,4.8,1.809,2.28,2.028,3,1.766,3.72-.306.839-.8,1.2-2,1.2Zm-27.53-12.719c1.573-6.96,1.271-12.72-.517-17.039-.185-.481.96-1.321,1.353-1.081,8.474,5.4,11.133,11.28,9.08,16.92-1.223,3.36-4.343,6-7.1,6C596.188,51.817,595.273,50.377,596.015,47.017Z"/>
          <path id="Path_158" data-name="Path 158" d="M733.084,57.5c4.745,4,9.543,8.4,14.6,12.1a109.75,109.75,0,0,0,17.3,9.9c1.872.9,2.89,2.5,2.161,4.5-.837,2.3-3.164,4.3-5.164,4.3-2.4,0-3.81-.8-5.773-2a73.026,73.026,0,0,1-13.743-10.6,179.031,179.031,0,0,1-13.433-14.2c-1.672-2-3.008-3-5.309-3-1.8,0-3.39.8-6.756,2.9A194.176,194.176,0,0,0,701.042,73a25.921,25.921,0,0,0-3.775,3.5,5.347,5.347,0,0,1-3.929,2c-2.3,0-4.153-2.6-5.189-4.7a7.526,7.526,0,0,1-.407-6.3c.472-1.3,1.065-2.1,1.665-2.1.5,0,.617.5.9,1.1,1.009,1.9,2.035,3.2,3.336,3.2.6,0,1.646-.4,4.018-1.7,6.548-3.7,13.332-7.5,18.624-10.5,4.409-2.5,6.964-3.2,9.764-3.2C728.548,54.3,730.584,55.3,733.084,57.5Z"/>
        </g>
        <g id="Group_95" data-name="Group 95">
          <path id="Path_159" data-name="Path 159" d="M28.988,84.457c1.133,6.119,3.292,8.759,7.153,10.679,4.613,2.16,12.6,3.961,30.117,3.961a417.855,417.855,0,0,0,46.734-3.12c.644-.121.4,1.2-.164,1.44-3.164,1.439-4.4,2.52-5.762,5.279-1.321,2.64-1.812,3-3.7,3.24-11.423.721-23.194,1.08-33.993,1.08-22.8,0-32.529-2.28-37.4-6.36-3.893-3.48-5.779-8.52-5.82-16.32a157.224,157.224,0,0,1-19.161,17.04c-1.365,4.08-2.4,5.281-3.722,5.281-1.44,0-2.269-3-3.268-12.121a53.706,53.706,0,0,0,7.637-2.52,66.614,66.614,0,0,0,12.448-6.839l11.575-31.8h-6.6a39.194,39.194,0,0,0-8.345.84l.46-4.56a45.441,45.441,0,0,0,8.977.72h5.76c5.368-4.2,6.143-4.68,6.863-4.68.84,0,1.265.48,4.078,3.96,1.232,1.56,1.374,2.16,1.112,2.879-.305.841-.8,1.2-4.627,3.481Zm14.488-64.2c.11-4.92-1.109-10.8-4.1-15.12-.229-.36.753-1.08,1.19-.96,10.962,3.84,14.636,10.56,12.627,16.08-1.179,3.24-4.017,5.76-7.017,5.76C44.139,26.017,43.3,24.7,43.476,20.257ZM116.982,41.5c4.594-3.721,5.368-4.2,6.088-4.2.96,0,1.386.479,3.566,3.72,1.036,1.44,1.134,2.16.871,2.879-.349.96-1.047,1.561-4.212,3l-3.406,9.36c-7.513,20.64-8.069,23.161-9.38,26.761a12.892,12.892,0,0,1-6.143,7.32,14.267,14.267,0,0,1-6.251,1.679c-1.441,0-1.833-.239-1.418-2.04.524-2.759-.043-3.839-7.656-6-.556-.121.043-1.44.644-1.44,5.509.359,8.509.359,10.549.359a2.382,2.382,0,0,0,2.618-1.919L116.13,44.5H64.292L58.7,59.856C52.63,76.537,50.348,83.137,48.689,87.7c-.918,2.52-3.078,3.839-6.2,3.839-2.521,0-3.327-1.08-2.541-3.239,1.135-3.12,3.318-7.8,8.3-21.48,5.633-15.48,8.134-22.68,10.526-30.24a55.137,55.137,0,0,1,7.689,4.92h.72L74.7,20.856a179.107,179.107,0,0,0,6.05-18.6A49.119,49.119,0,0,1,88.61,6.7h30.478c4.594-3.72,5.445-4.08,6.165-4.08.84,0,1.429.36,3.773,3.48,1.276,1.44,1.374,2.16,1.112,2.881-.349.96-1.256,1.8-4.3,3.239L115.182,41.5Zm-47.8,36.719c-.786,2.16-2.74,3.241-5.379,3.241-2.4,0-3.054-.84-2.355-2.761.568-1.56,1.845-4.08,5.295-13.559a109.782,109.782,0,0,0,4.3-13.8A38.1,38.1,0,0,1,78.36,55.3H94.08c3.972-3,4.7-3.36,5.422-3.36.84,0,1.43.36,3.228,3,1,1.2,1.222,1.919.959,2.64-.305.84-.84,1.319-3.851,3l-1.267,3.48c-2.795,7.68-3.9,11.039-4.291,12.119-.83,2.281-2.663,3.361-5.543,3.361-2.28,0-2.738-.721-1.952-2.881l.393-1.08H70.139ZM93.467,58.3H76.428l-5.2,14.28H88.27Zm-2.4-28.679A90.779,90.779,0,0,0,94.54,18.1a61,61,0,0,1,7.154,4.08h12.479L118.716,9.7H86.678L75.1,41.5H86.743ZM107.142,41.5l5.94-16.32H100L94.063,41.5Z" fill="#fff"/>
          <path id="Path_160" data-name="Path 160" d="M190.756,56.736c-4.987,6.12-10.41,12.121-16.151,18a253.066,253.066,0,0,1-21.5,20.16c17.411-.36,35.258-1.92,53.072-3.72a58.607,58.607,0,0,0-10.29-20.519c-.306-.48,1.047-1.56,1.517-1.2,17.21,10.081,24.329,23.16,20.966,32.4-1.267,3.48-3.81,5.52-6.57,5.52-2.519,0-3.4-1.2-3.761-5.16a64.841,64.841,0,0,0-1.187-8.279c-20.662,4.679-40.954,7.68-72.032,10.319-2.14,3.24-3.449,4.2-4.649,4.2-1.441,0-1.527-2.4.267-13.92a109.3,109.3,0,0,0,13.341.6c1.679,0,3.239,0,5.083-.12,5.871-6.239,11.35-12.72,16.631-19.32a206.981,206.981,0,0,0,13.741-18.96H147.319a64.454,64.454,0,0,0-9.263.721l.46-4.56a54.5,54.5,0,0,0,9.654.84h37.679l8.866-24.36H168.2a49.105,49.105,0,0,0-9.142.72l.46-4.56a52.273,52.273,0,0,0,9.534.84h26.759l2.839-7.8c2.708-7.44,4.335-12.24,5.514-16.8,12.283,1.2,13.374,2.16,12.894,3.48-.306.84-1.584,2.04-5.544,3.36l-6.464,17.76h23.28c7.922-6.6,8.979-7.2,9.7-7.2.841,0,1.463.6,5.486,5.04,1.766,2.4,1.941,3.24,1.679,3.96a1.826,1.826,0,0,1-2,1.2H203.955l-8.867,24.36h31.319c8.533-6.96,9.591-7.56,10.431-7.56.721,0,1.342.6,5.626,5.64,1.931,2.279,2.225,3.12,1.963,3.839s-.873,1.08-2.072,1.08Z" fill="#fff"/>
          <path id="Path_161" data-name="Path 161" d="M301.983,51.678c3.2,0,5.427,1.3,6.408,4.1,1.072,3.1.171,7.5-1.431,11.9a90.462,90.462,0,0,1-11.616,21.2,55.042,55.042,0,0,1-12.459,12.8c-4.156,2.9-7.438,4.5-10.539,4.5-2.3,0-3.081-.6-2.754-2.6a5.189,5.189,0,0,0-.189-3.6c-.908-1.9-2.018-3.8-3.507-6.3a1.033,1.033,0,0,1-.136-1,2.08,2.08,0,0,1,1.4-1.1,1.213,1.213,0,0,1,.918.5,68.069,68.069,0,0,0,6.044,5.1,5.038,5.038,0,0,0,2.645.7,7.613,7.613,0,0,0,4.492-1.9c4.574-3.5,8.385-8.2,12.051-13.6a91.17,91.17,0,0,0,8.787-17c1.6-4.4,2.012-6.9,1.358-8.4-.528-1.3-1.483-1.7-3.683-1.7a34.064,34.064,0,0,0-7.337,1.2c-5.429,6.4-10.522,12.7-15.634,18.5-8.876,10.1-16.579,18.9-25.327,28.1a5.621,5.621,0,0,1-4.228,2c-1.8,0-2.764-1.2-2.181-2.8a9.485,9.485,0,0,1,2.646-3.7c9.14-8.9,17.816-17.9,26.164-27.1,4.384-4.9,8.077-9,11.605-13.2-4.173,1.3-8.656,2.9-11.993,4.1a16.661,16.661,0,0,0-3.446,1.5,5.243,5.243,0,0,1-2.9,1.1q-2.1,0-3.626-2.4c-1.337-2.1-2.09-4.7-1.252-7,.4-1.1,1.373-2.4,1.873-2.4.4,0,.527.2.772.9.963,2.3,1.953,3.7,3.554,3.7,2.1,0,4.082-.5,7.673-1.3,3.791-.8,7.956-1.8,13.229-3.1,3.675-4.6,6.494-8.5,8.9-12.1a16.015,16.015,0,0,0,2.118-3.9c.328-.9.311-1.4-.662-2.3a9.919,9.919,0,0,0-3.853-1.5c-.929-.2-1.255-.4-1.074-.9s.928-.9,1.774-1.3a10.42,10.42,0,0,1,12.363,3.4,3.207,3.207,0,0,1,.4,3.3,4.2,4.2,0,0,1-2.738,2.3,11.6,11.6,0,0,0-3.564,3.2c-2.183,2.7-4.638,5.6-7.167,8.7A34.579,34.579,0,0,1,301.983,51.678Zm28.593,30.8a3.216,3.216,0,0,1-2.5-1.1,4.149,4.149,0,0,0-3.3-1.1c-3.2,0-6.773.2-11.483.5-.937.1-1.182-.6-.927-1.3a1.885,1.885,0,0,1,1.537-1.2,111.983,111.983,0,0,0,12.22-2.8c1.345-.4,1.855-.7,2.255-1.8.655-1.8.393-5.2-.6-7.7a25.271,25.271,0,0,0-7.179-10.5,1.4,1.4,0,0,1-.491-1.4,2.027,2.027,0,0,1,1.864-1,1.47,1.47,0,0,1,.828.2,23.653,23.653,0,0,1,10.543,9.5c2.6,4.4,4.506,9.6,2.395,15.4C334.648,81.178,332.475,82.477,330.576,82.477Z" fill="#fff"/>
          <path id="Path_162" data-name="Path 162" d="M384.907,37.05a10.953,10.953,0,0,1-.852-9.2c.327-.9.837-1.2,1.237-1.2.5,0,.727.2.9,1.1,1.026,4.6,4.543,7.3,9.152,9.2,1.908.8,3.781,1.7,4.735,3.2a4.4,4.4,0,0,1,.536,4.3,4.273,4.273,0,0,1-3.719,2.8,7.63,7.63,0,0,1-2.919-.5,12.756,12.756,0,0,0-4.582-.6,45.7,45.7,0,0,0-13.656,2.9c-1.855.7-3.119,1.7-3.484,2.7a6.174,6.174,0,0,0-.181,2.7,10.889,10.889,0,0,1-.765,4.3,75.906,75.906,0,0,1-3.248,7,139.756,139.756,0,0,0-6.541,14.4c-.145.4-.155.7.245.7a2.684,2.684,0,0,0,1.419-.6,169.784,169.784,0,0,1,16.676-9c8.456-4,14.448-5.9,20.648-5.9,6.9,0,11.5,2.2,13.563,5.6,2.036,3.2,2.189,6.9.7,11-3.312,9.1-11.978,15.6-23.417,20.1a102.948,102.948,0,0,1-34.1,6.6c-1.1,0-1.892-.3-1.564-1.2a2.745,2.745,0,0,1,2.046-1.5c10.147-1.5,21.93-4.2,31.131-8.6,9.676-4.6,16.278-10.1,18.607-16.5,1.456-4,1.348-7-.116-9.3-1.472-2-4.472-3.1-8.572-3.1-4.6,0-9.483,1.6-14.766,4.3a103.328,103.328,0,0,0-15.949,10.3c-4.238,3.4-6.738,5.6-7.994,7.4-1.291,1.9-2.246,2.6-3.847,2.6-1.3,0-2.235-1-2.744-2.9a9.63,9.63,0,0,1,.51-5.8c2.293-6.3,5.66-12.8,9.825-20.4a51.345,51.345,0,0,0,3.566-7.6c.4-1.1.711-2.5,1.184-3.8.946-2.6,3.1-4.4,6.011-5.8a87.967,87.967,0,0,1,14.421-5A12.978,12.978,0,0,1,384.907,37.05Z" fill="#fff"/>
          <path id="Path_163" data-name="Path 163" d="M505.7,53.5a48.427,48.427,0,0,0,12.918,24.839c6.554,6.721,15.813,11.28,25.7,13.8.436.12-.033,1.08-.557,1.2-3.9.84-5.5,1.92-9.154,6.36-.961,1.321-1.616,1.8-2.576,1.8-.6,0-1.625-.48-3.587-1.681-7.155-4.08-12.456-9.959-16.62-16.319-4.11-6.841-7.117-15.72-8.324-27.241-5.4,15.481-16.391,46.681-17.789,50.521-1,2.759-3.285,4.08-7.124,4.08-2.88,0-3.687-1.08-2.769-3.6,1.484-4.08,10.514-27.24,17.382-45.12-19.326,18.48-41.377,31.919-63.9,39.719-.97.36-1.122-1.2-.228-1.68C452.3,88.777,474.807,72.1,491.656,53.5H460.217a75.488,75.488,0,0,0-9.861.72l.459-4.56a52.4,52.4,0,0,0,10.374.84h35.879l8.474-23.28h-27a58.07,58.07,0,0,0-9.741.72l.459-4.561a62.2,62.2,0,0,0,10.254.841h27.119L509.3,16.9c3.32-9.12,4.161-11.76,5.177-16.2,11.519,1.32,12.741,1.92,12.173,3.48-.393,1.08-1.418,1.92-5.227,3.48l-6.027,16.56h24.239c6.94-5.88,8.075-6.36,8.795-6.36.84,0,1.625.48,5.539,4.56,1.9,2.04,2.236,2.76,1.93,3.6a1.921,1.921,0,0,1-2,1.2H514.3L505.828,50.5h32.519c7.431-6.24,8.489-6.84,9.209-6.84.84,0,1.581.6,5.725,5.04,1.973,2.16,2.268,3,2.007,3.72s-.754,1.08-1.955,1.08Z" fill="#fff"/>
          <path id="Path_164" data-name="Path 164" d="M623.545,59.736a43.252,43.252,0,0,0,14.4,23.4c6.664,5.759,15.137,9.839,24.9,12.36.438.119-.032,1.079-.556,1.2-3.862.721-5.663,2.04-9.2,6.481-1.036,1.2-1.69,1.679-2.531,1.679-.72,0-1.984-.48-3.948-1.679a60.379,60.379,0,0,1-15.79-14.641c-4.634-6.72-7.981-15-9.318-26.16-4.553,12.84-14.032,40.2-15.736,44.881-1,2.759-3.4,4.08-7,4.08-3,0-3.807-1.081-2.889-3.6,1.441-3.961,10.034-25.921,15.754-40.32-17.885,17.16-41.823,30.839-63.435,37.8-.927.239-1.123-1.2-.229-1.68,23.185-11.281,42.661-24.241,61.181-43.8H576.507a61.149,61.149,0,0,0-9.862.721l.46-4.56a64.762,64.762,0,0,0,10.374.839h37.559l12.1-33.239H595.1a59.457,59.457,0,0,0-8.781.72l.5-4.68a41.667,41.667,0,0,0,9.25.96h32.159l2.141-5.879A125.923,125.923,0,0,0,635.095-.023c10.919,1.32,12.664,1.8,12.053,3.48-.393,1.08-1.375,1.8-5.182,3.36L636.987,20.5h27c7.792-6.24,8.85-6.84,9.57-6.84.84,0,1.461.6,5.486,5.04,1.809,2.28,2.147,3,1.885,3.72s-.754,1.08-2.073,1.08H635.9L623.8,56.736h6.6a175.149,175.149,0,0,0,17.886-19.8,72.855,72.855,0,0,0,6.9-9.72c7.711,4.2,9.663,5.76,9.183,7.08-.612,1.68-1.866,2.16-5.826,2.16a175.943,175.943,0,0,1-24.661,20.279h23.4c7.43-6.239,8.445-6.719,9.165-6.719.84,0,1.625.48,5.933,4.8,1.809,2.28,2.028,3,1.766,3.72-.306.839-.8,1.2-2,1.2Zm-27.53-12.719c1.573-6.96,1.271-12.72-.517-17.039-.185-.481.96-1.321,1.353-1.081,8.474,5.4,11.133,11.28,9.08,16.92-1.223,3.36-4.343,6-7.1,6C596.188,51.817,595.273,50.377,596.015,47.017Z" fill="#fff"/>
          <path id="Path_165" data-name="Path 165" d="M733.084,57.5c4.745,4,9.543,8.4,14.6,12.1a109.75,109.75,0,0,0,17.3,9.9c1.872.9,2.89,2.5,2.161,4.5-.837,2.3-3.164,4.3-5.164,4.3-2.4,0-3.81-.8-5.773-2a73.026,73.026,0,0,1-13.743-10.6,179.031,179.031,0,0,1-13.433-14.2c-1.672-2-3.008-3-5.309-3-1.8,0-3.39.8-6.756,2.9A194.176,194.176,0,0,0,701.042,73a25.921,25.921,0,0,0-3.775,3.5,5.347,5.347,0,0,1-3.929,2c-2.3,0-4.153-2.6-5.189-4.7a7.526,7.526,0,0,1-.407-6.3c.472-1.3,1.065-2.1,1.665-2.1.5,0,.617.5.9,1.1,1.009,1.9,2.035,3.2,3.336,3.2.6,0,1.646-.4,4.018-1.7,6.548-3.7,13.332-7.5,18.624-10.5,4.409-2.5,6.964-3.2,9.764-3.2C728.548,54.3,730.584,55.3,733.084,57.5Z" fill="#fff"/>
        </g>
      </g>
      <g id="Group_98" data-name="Group 98" transform="translate(-0.001 0.023)">
        <g id="Group_97" data-name="Group 97">
          <path id="Path_166" data-name="Path 166" d="M54.925,198.642a67.759,67.759,0,0,0,10.91-5.888,51.135,51.135,0,0,0,6.239-5.183c3.508,2.495,3.961,3.007,3.774,3.519-.162.448-1.135.832-2.769.577a53.088,53.088,0,0,1-18.05,7.742C54.623,199.473,54.535,198.833,54.925,198.642Zm27.2-12.479c-6.114.448-12.589.832-19.874,1.152-1,1.343-1.588,1.728-2.037,1.728-.511,0-.546-.96.2-5.824a85.386,85.386,0,0,0,8.714.321c4.288,0,8.575,0,12.91-.129a94.555,94.555,0,0,0,9.206-6.655A41.606,41.606,0,0,0,95.9,172.4c3.409,2.239,4.031,2.815,3.822,3.391-.233.64-.472.768-2.816.7a123.486,123.486,0,0,1-12.692,6.911c6.79-.192,13.562-.512,20.445-.96a12.667,12.667,0,0,0-3.938-3.775c-.209-.129.385-.7.681-.641,7.824,1.537,10.645,4.864,9.6,7.744a3.329,3.329,0,0,1-2.91,2.367c-.9,0-1.373-.448-1.948-2.559a9.493,9.493,0,0,0-.774-1.92c-6.278.9-12.462,1.536-18.623,2.112l-1.84,5.055c-1.281,3.52-2.137,6.4-2.463,7.3-.513,1.407-1.705,2.047-3.689,2.047-1.344,0-1.821-.448-1.378-1.664.232-.64,1.28-2.816,2.934-7.359Zm.223-23.294c-.42,1.152-.839,2.3-1.357,3.9H88.73c2.6-2.047,3.166-2.368,3.486-2.368.449,0,.78.321,2.35,1.984.431.576.588,1.024.448,1.408s-.467.576-1.042.576h-13.5c-.471,1.471-.78,2.5-.99,3.072-.4,1.087-1.246,1.663-3.038,1.663-1.151,0-1.477-.512-1.174-1.344.21-.576.757-1.727,1.362-3.391H67.862a27.625,27.625,0,0,0-4.556.384l.292-2.56a17.726,17.726,0,0,0,4.846.576h8.831c.531-1.28,1.019-2.624,1.486-3.9h-6.08l-.07.193a2.611,2.611,0,0,1-2.654,1.664c-1.151,0-1.5-.448-1.105-1.537.35-.96,1.061-2.559,3.134-8.255,1.071-2.943,1.606-4.415,2.206-6.591a15.816,15.816,0,0,1,3.437,1.984h5.7l1.4-3.84H76.532a27.923,27.923,0,0,0-4.491.385l.18-2.433a24.956,24.956,0,0,0,4.765.449h8.319c.728-2.176,1.177-3.584,1.613-5.312,5.079.64,5.457.832,5.2,1.536-.163.448-.361.64-2.392,1.472l-.839,2.3h6.784c2.648-2.176,3.213-2.5,3.6-2.5s.715.32,2.35,1.983c.575.7.732,1.152.592,1.537s-.465.575-1.042.575H88.306l-1.4,3.84h5.824c1.815-1.472,2.228-1.727,2.677-1.727.383,0,.674.255,1.622,1.343.664.64.692,1.087.552,1.472-.117.32-.4.576-1.9,1.343l-.909,2.5c-1.723,4.735-2.387,6.911-2.643,7.615a2.639,2.639,0,0,1-2.718,1.664c-1.088,0-1.35-.512-1.024-1.408l.093-.256Zm-.274,17.279a3.129,3.129,0,0,1-2.752,2.111c-.832,0-1.082-.192-1.547-1.728-.755-2.5-2.453-4.159-5.03-5.7-.209-.128.21-.576.442-.512a22.287,22.287,0,0,1,6.493,1.856c.989-.96,2.024-2.048,2.908-3.072.91-1.088,1.84-2.239,2.375-3.008,3.5,1.472,4.375,2.048,4.143,2.688-.21.576-.921.768-2.672.833-2.543,1.535-3.933,2.367-5.6,3.263A2.681,2.681,0,0,1,82.07,180.148ZM73.263,161.27h6.08l1.467-4.032H74.73Zm3.4-9.343-1.351,3.711h6.08l1.351-3.711Zm13.873,5.311H84.393l-1.467,4.032h6.143Zm1.933-5.311H86.327l-1.351,3.711h6.143Zm22.746,4.671c1.9-1.344,2.311-1.6,2.695-1.6.448,0,.738.255,2.123,1.727.534.64.628,1.087.487,1.472-.163.448-.4.575-2.449,1.28a58.437,58.437,0,0,1-9.514,6.975c3.367,2.175,8.073,3.135,13.141,3.456.257,0,.047.576-.233.639a6.386,6.386,0,0,0-4.12,2.881,1.575,1.575,0,0,1-1.263.831,7.7,7.7,0,0,1-2.477-.576,25.132,25.132,0,0,1-6.993-4.351,8.844,8.844,0,0,1-1.157-1.216,66.021,66.021,0,0,1-14.976,4.927c-.344.064-.343-.639.024-.768a76.256,76.256,0,0,0,13.539-6.079,21.3,21.3,0,0,1-2.4-8,27.086,27.086,0,0,0-3.555.448l.269-2.5a19.194,19.194,0,0,0,4.637.448ZM98.39,196.85a15.849,15.849,0,0,0-7.641-8.192c-.21-.127.209-.575.464-.575,8.121.9,13.276,4.671,12.018,8.127a3.381,3.381,0,0,1-3.061,2.432C99.4,198.642,98.989,198.193,98.39,196.85Zm11.343-51.386a15.206,15.206,0,0,1-4.155,6.142,23.309,23.309,0,0,1-8.635,4.736c-.279.064-.5-.384-.262-.511a22.643,22.643,0,0,0,6.215-5.12,19.382,19.382,0,0,0,3.3-6.08,34.1,34.1,0,0,0,1.218-4.223,21.834,21.834,0,0,1,3.792,2.239h5.631c2.037-1.728,2.45-1.982,2.833-1.982.449,0,.74.254,1.873,1.535.553.768.582,1.216.443,1.6s-.513.7-1.921,1.408l-1.4,3.839c-.418,1.152.105,1.472,1.64,1.472,2.048,0,3.078-.192,4.1-.9.849-.576,1.95-2.368,3.137-4.224.157-.255.686-.128.593.128-.349.96-.949,2.432-1.205,3.136-.186.512-.128.7.355.96a.946.946,0,0,1,.534,1.344,3.7,3.7,0,0,1-2.624,2.112,20.333,20.333,0,0,1-6.08.7c-4.352,0-5.6-1.151-4.711-3.583.3-.832.67-1.664,1.554-4.1l.676-1.856h-6.464ZM102.922,158.2a13.4,13.4,0,0,0,3.513,6.528,48.383,48.383,0,0,0,8.07-6.528Z" fill="#fff"/>
          <path id="Path_167" data-name="Path 167" d="M158.37,159.542c2.048,0,3.474.832,4.1,2.623.686,1.984.11,4.8-.916,7.616a57.908,57.908,0,0,1-7.433,13.566,35.217,35.217,0,0,1-7.974,8.191c-2.659,1.857-4.759,2.879-6.743,2.879-1.472,0-1.972-.383-1.762-1.663a3.329,3.329,0,0,0-.121-2.3c-.582-1.217-1.291-2.432-2.245-4.032a.661.661,0,0,1-.087-.64,1.329,1.329,0,0,1,.9-.7.775.775,0,0,1,.588.32,43.619,43.619,0,0,0,3.869,3.263,3.212,3.212,0,0,0,1.693.448,4.864,4.864,0,0,0,2.873-1.215,36.5,36.5,0,0,0,7.712-8.7,58.3,58.3,0,0,0,5.623-10.879c1.025-2.816,1.288-4.416.869-5.375-.337-.832-.948-1.088-2.356-1.088a21.825,21.825,0,0,0-4.695.767c-3.475,4.095-6.735,8.128-10,11.839-5.68,6.463-10.61,12.1-16.21,17.983a3.6,3.6,0,0,1-2.7,1.279c-1.153,0-1.769-.767-1.4-1.792a6.066,6.066,0,0,1,1.694-2.367c5.848-5.7,11.4-11.455,16.742-17.342,2.806-3.136,5.169-5.76,7.426-8.447-2.669.831-5.538,1.855-7.673,2.623a10.65,10.65,0,0,0-2.206.96,3.357,3.357,0,0,1-1.856.7,2.775,2.775,0,0,1-2.321-1.536,5.224,5.224,0,0,1-.8-4.479c.256-.7.879-1.537,1.2-1.537.256,0,.337.129.494.577.616,1.472,1.25,2.367,2.274,2.367a23.437,23.437,0,0,0,4.911-.832c2.426-.511,5.09-1.152,8.465-1.983,2.351-2.944,4.156-5.44,5.7-7.743a10.28,10.28,0,0,0,1.356-2.5c.21-.576.2-.9-.424-1.472a6.347,6.347,0,0,0-2.466-.96c-.594-.127-.8-.256-.687-.576s.6-.576,1.135-.832a6.666,6.666,0,0,1,7.912,2.176,2.047,2.047,0,0,1,.255,2.111,2.684,2.684,0,0,1-1.751,1.473,7.407,7.407,0,0,0-2.282,2.048c-1.4,1.727-2.968,3.583-4.586,5.567A22.115,22.115,0,0,1,158.37,159.542Zm18.3,19.709a2.057,2.057,0,0,1-1.6-.7,2.652,2.652,0,0,0-2.111-.7c-2.048,0-4.335.128-7.348.32-.6.064-.757-.385-.594-.832a1.206,1.206,0,0,1,.984-.768,71.457,71.457,0,0,0,7.82-1.792c.861-.256,1.186-.448,1.442-1.151a8.155,8.155,0,0,0-.382-4.928,16.188,16.188,0,0,0-4.593-6.719.891.891,0,0,1-.315-.9,1.3,1.3,0,0,1,1.194-.64.937.937,0,0,1,.529.128,15.138,15.138,0,0,1,6.746,6.08c1.664,2.815,2.884,6.142,1.533,9.854A3.692,3.692,0,0,1,176.667,179.251Zm.5-31.1a8.9,8.9,0,0,1,4.4,3.2c1.047,1.344,1.523,2.5,1.034,3.839a2.8,2.8,0,0,1-2.49,1.92q-1.246,0-1.483-1.728a13.475,13.475,0,0,0-3.14-6.143.665.665,0,0,1-.214-.639,1.031,1.031,0,0,1,.936-.641A2.946,2.946,0,0,1,177.171,148.151Zm7.128-4.288a9.686,9.686,0,0,1,4.212,2.5c1.139,1.088,2.012,2.56,1.476,4.032a2.863,2.863,0,0,1-2.473,2.048c-.832,0-1.227-.32-1.489-1.536a11.658,11.658,0,0,0-3.7-6.015.524.524,0,0,1-.215-.64,1.016,1.016,0,0,1,.872-.641A6.946,6.946,0,0,1,184.3,143.863Z" fill="#fff"/>
          <path id="Path_168" data-name="Path 168" d="M209.2,172.34c5.737-3.456,10.927-5.055,15.279-5.055,9.407,0,12.447,5.888,9.932,12.8-3.517,9.664-14.2,15.1-23.607,15.1-6.975,0-10.855-2.88-9.271-7.231,1.258-3.455,4.813-5.312,8.332-5.312,5.952,0,7.882,5.248,7.77,8.191a18.632,18.632,0,0,0,12.093-11.071c2.585-7.1-.968-10.175-6.407-10.175-5.952,0-12.015,2.944-16.84,6.528a86.279,86.279,0,0,0-7.041,5.632,3.131,3.131,0,0,1-1.9.832c-1.216,0-1.931-1.024-1.4-2.5a5.109,5.109,0,0,1,1.926-2.3c6.861-5.31,14.176-10.814,20.833-16.445,3.986-3.392,7.774-6.592,12.511-10.815.658-.576.512-.7.256-.7a7.411,7.411,0,0,0-1.332.32c-3.229.96-6.935,2.176-9.868,3.2a7.467,7.467,0,0,0-2.665,1.344,3.4,3.4,0,0,1-1.984.7,3.238,3.238,0,0,1-2.524-1.856,5.442,5.442,0,0,1-.6-4.671c.233-.64.873-1.344,1.257-1.344.256,0,.419.256.576.7.733,1.855,1.4,2.5,2.483,2.5a17.62,17.62,0,0,0,3.491-.448c3.136-.7,6.1-1.472,9.333-2.431a6.408,6.408,0,0,0,2.338-1.152,2.915,2.915,0,0,1,1.705-.641c1.024,0,2.275.96,3.31,1.984a2.393,2.393,0,0,1,.918,2.752c-.233.64-.907,1.088-2.152,1.344-.687.127-1.38.447-3.3,1.855-2.882,2.112-6.507,4.864-11.89,9.279-3.369,2.752-8.036,6.08-11.643,8.96Zm-.825,12.287a4.827,4.827,0,0,0-4.59,2.944c-.955,2.623,1.784,4.415,6.9,4.415a14.156,14.156,0,0,0,2.631-.192C213.688,188.146,211.512,184.627,208.376,184.627Z" fill="#fff"/>
          <path id="Path_169" data-name="Path 169" d="M280.375,154.039c.908-2.5,1.28-3.52,1.2-4.352a1.326,1.326,0,0,0-1.053-1.152,7.79,7.79,0,0,0-1.739-.32c-.489-.064-.762-.192-.693-.383.094-.257.315-.513.966-.9a5.679,5.679,0,0,1,6.7.575c1.25.96,1.878,2.048,1.529,3.008a2.438,2.438,0,0,1-1.129,1.344,5.758,5.758,0,0,0-1.915,1.919,34.532,34.532,0,0,0-2.219,4.864,27.777,27.777,0,0,0,5.941-2.432A7.5,7.5,0,0,1,292.12,155c1.408,0,2.216.768,1.82,1.855a3.061,3.061,0,0,1-1.844,1.728,74.355,74.355,0,0,1-11.439,3.647c-1.526,3.84-3.121,7.871-4.525,11.9,5.738-2.752,11.172-4.671,16.42-4.671,3.455,0,5.9,1.024,7.509,2.752,1.716,1.791,2.146,4.479,1.1,7.359a14.626,14.626,0,0,1-6.129,7.167,16.224,16.224,0,0,1-8.652,2.495c-4.927,0-8.5-1.792-9.7-5.694a1.816,1.816,0,0,1,.093-.96.874.874,0,0,1,.7-.513.65.65,0,0,1,.629.384,9.12,9.12,0,0,0,7.719,3.584,12.068,12.068,0,0,0,6.913-2.112,10.53,10.53,0,0,0,4.2-5.568,5.085,5.085,0,0,0-.568-5.119c-.966-1.216-2.7-1.727-5.2-1.727-2.88,0-6.138,1.215-10.095,2.943-2.013.96-4.09,1.92-6.039,2.88-1.1,3.2-2.138,6.4-2.824,8.638-.216.769-.641,2.113-.757,2.432a12.307,12.307,0,0,1-1.473,2.817c-1.607,2.3-2.59,3.071-3.614,3.071-.9,0-1.269-.384-1.122-1.664a3.042,3.042,0,0,0-.849-2.24,43.346,43.346,0,0,0-4.1-4.735,12.3,12.3,0,0,0-2.816,2.112,2.253,2.253,0,0,1-1.734.9,2.971,2.971,0,0,1-2.159-1.279,4.209,4.209,0,0,1-.825-4.416c.3-.832.729-1.472,1.113-1.472.255,0,.418.257.476.448a2.461,2.461,0,0,0,.471,1.345.981.981,0,0,0,.8.447,6.2,6.2,0,0,0,2.3-.7c5.325-2.5,9.555-4.8,14.321-7.168,1.769-4.862,3.318-8.766,4.85-12.8a40.939,40.939,0,0,1-7.342.831,4.206,4.206,0,0,1-4.362-3.135,4.361,4.361,0,0,1-.1-2.368,1.008,1.008,0,0,1,.808-.64c.256,0,.466.128.646.512a3.8,3.8,0,0,0,3.7,2.5,38.814,38.814,0,0,0,7.884-1.088Zm-9.324,25.085c-3.083,1.791-6.388,3.839-9.018,5.439a18.01,18.01,0,0,0,3.53,2.432,4.465,4.465,0,0,0,1.751.64c.512,0,.733-.256,1.082-1.216Zm40.667-19.07c1.379,1.663,1.907,3.2,1.139,5.311a2.894,2.894,0,0,1-2.618,1.92,1.4,1.4,0,0,1-1.118-.448,1.638,1.638,0,0,0-1.285-.512,9.805,9.805,0,0,0-2.019.448c-1.443.448-2.48.832-3.619,1.151a3.394,3.394,0,0,1-.686.129.366.366,0,0,1-.327-.512c.094-.256.291-.448.769-.7,1.67-.9,3.561-2.048,5.26-3.2A1.28,1.28,0,0,0,307.7,163a.9.9,0,0,0-.064-.7,5.323,5.323,0,0,0-4.991-2.816,11.934,11.934,0,0,0-4.212,1.023,3.819,3.819,0,0,1-.949.321.433.433,0,0,1-.406-.64,1.656,1.656,0,0,1,.837-.9,14.716,14.716,0,0,1,7.233-2.112A9.282,9.282,0,0,1,311.718,160.054Z" fill="#fff"/>
          <path id="Path_170" data-name="Path 170" d="M329.55,172.788c-5.544,15.231-8.041,22.27-8.833,24.445-.559,1.537-1.711,2.24-3.567,2.24-1.6,0-2.1-.383-1.518-1.983.49-1.344,2.469-6.08,7.908-20.671,1.63-4.479,3.231-8.7,4.837-13.117a103.072,103.072,0,0,1-12.208,9.278c-.436.32-.861-.448-.424-.767a119.416,119.416,0,0,0,20.759-22.4A70.579,70.579,0,0,0,342.1,140.6c4.48,1.408,6.37,2.368,6.091,3.136-.257.7-1.036,1.087-2.984,1.343a129.257,129.257,0,0,1-13.334,15.359c3.31.576,3.792.832,3.536,1.536-.186.511-.622.832-2.5,1.6Zm27.238,20.99c4.317-3.776,4.859-4.031,5.243-4.031.448,0,.8.255,2.937,3.007,1.03,1.216,1.122,1.663.983,2.048s-.4.575-1.042.575H330.864a37.165,37.165,0,0,0-5.2.385l.245-2.432a25.734,25.734,0,0,0,5.341.448H342.2l10.249-28.157H340.607a28.665,28.665,0,0,0-4.492.384l.245-2.432a20.564,20.564,0,0,0,4.765.448h11.9l3.261-8.958c2.468-6.784,3.848-10.752,4.478-13.184,6.526.705,7.085,1.281,6.829,1.984-.21.576-.908,1.089-3.02,1.793l-6.685,18.365h11.2c4.272-3.647,4.877-3.9,5.261-3.9s.8.256,2.92,2.88c.965,1.215,1.058,1.663.918,2.047s-.4.576-1.041.576H357.309l-10.248,28.157Z" fill="#fff"/>
          <path id="Path_171" data-name="Path 171" d="M415.485,149.623H396.479a31.21,31.21,0,0,0-5.133.384l.246-2.432a31.452,31.452,0,0,0,5.277.448h19.2a61.686,61.686,0,0,0,2.5-7.743c6.243.96,6.58,1.088,6.23,2.048-.185.511-.623.832-2.606,1.535l-1.514,4.16h17.279c3.957-3.135,4.586-3.456,4.969-3.456s.779.321,2.669,2.688c.931.96,1.112,1.345.972,1.728a.974.974,0,0,1-1.065.64H420.093l-1.864,5.119H430.58c2.625-2.111,3.079-2.3,3.462-2.3.449,0,.7.192,2.077,1.855.616.769.71,1.216.57,1.6-.163.448-.385.7-2.183,1.6l-.536,1.472c-1.35,3.711-1.8,5.312-1.968,5.76-.465,1.279-1.659,1.92-3.451,1.92-1.279,0-1.6-.513-1.232-1.537l.14-.383H414.6l-1.933,5.311h13.566c2.579-1.984,2.968-2.176,3.353-2.176.447,0,.762.192,2.251,1.727.744.768.773,1.216.633,1.6s-.361.64-2.27,1.665l-1.49,4.1h2.111c3.114-2.752,3.679-3.072,4.062-3.072.512,0,.844.32,2.507,2.432.785.832.943,1.279.8,1.664s-.465.575-1.041.575h-9.023c-2.01,5.7-2.773,8.32-3.075,9.151-.559,1.536-1.794,2.113-3.777,2.113-1.344,0-1.669-.512-1.25-1.665l.862-2.367H407c-1.5,4.287-2.225,6.463-2.947,8.447A8.135,8.135,0,0,1,401.012,198a8.54,8.54,0,0,1-4.887,1.471c-.832,0-.914-.127-.681-1.471.373-1.728-.621-2.688-5.6-3.776-.3-.064-.017-.831.3-.831,3.642.191,6.131.383,8.308.383a1.368,1.368,0,0,0,1.356-1.088l2.516-6.911h-15.1a25.412,25.412,0,0,0-4.858.512l.269-2.5a26.776,26.776,0,0,0,5.043.385h15.232l2.05-5.632H384.222a37.521,37.521,0,0,0-5.066.385l.244-2.432a29.869,29.869,0,0,0,5.213.448H405.54l1.933-5.311H392.818a23.972,23.972,0,0,0-5.091.447l.269-2.5a29.866,29.866,0,0,0,5.276.449h14.783l1.933-5.311H397.316l-.209.575c-.466,1.28-1.508,1.856-3.235,1.856-1.344,0-1.885-.449-1.465-1.6.256-.7,1.03-2.3,2.637-6.719a52.189,52.189,0,0,0,2.08-6.592,17.284,17.284,0,0,1,4.4,2.5h12.1Zm-15.117,6.719-2.469,6.783h12.672l2.469-6.783Zm9.2,22.205c-.676,1.857-1.311,3.777-1.986,5.632h13.887l2.05-5.632Zm.582-1.6H424.1l1.934-5.311H412.081Zm5.031-13.823h12.864l2.468-6.783H417.647Z" fill="#fff"/>
          <path id="Path_172" data-name="Path 172" d="M473.445,171.316c1.328-3.648.99-5.183-1.314-5.183-2.623,0-6.01,1.92-9.5,4.479a86.371,86.371,0,0,0-7.385,6.4,5.179,5.179,0,0,1-2.735,1.535c-1.216,0-1.833-.768-1.18-2.559.349-.96,1.379-1.856,3.125-3.135,2.554-1.92,5.989-4.672,8.886-7.36,2.59-2.368,5.081-4.992,7.485-7.551a40.078,40.078,0,0,1-5.644.384c-3.2,0-5.364-1.088-5.933-4.1a1.378,1.378,0,0,1,.046-.831.824.824,0,0,1,.723-.576.761.761,0,0,1,.581.511c.931,1.665,3.071,2.112,5.568,2.112a40.7,40.7,0,0,0,7.6-1.024,58.022,58.022,0,0,0,4.091-5.439,10.364,10.364,0,0,0,.926-1.664c.3-.832-.006-1.215-.745-1.472a12.914,12.914,0,0,0-2.438-.512c-.3-.064-.441-.191-.372-.383a2.078,2.078,0,0,1,.768-.7,5.239,5.239,0,0,1,2.8-.832,8,8,0,0,1,4.264,1.472c1.21.9,1.482,1.727,1.2,2.495a2.74,2.74,0,0,1-1.239,1.472,10.305,10.305,0,0,0-2.229,1.728c-.617.64-1.787,1.919-2.671,2.943a38.533,38.533,0,0,0,6.383-2.24,8.99,8.99,0,0,1,3.659-1.087c1.409,0,2.153.768,1.734,1.92s-1.455,1.536-2.834,1.984c-3.9,1.215-7.424,2.111-12.364,3.2-3.2,3.328-6.414,6.719-9.707,9.791,3.235-1.855,6.557-3.072,8.8-3.072,3.392,0,4.823,2.048,3.909,5.44-.152.768-.572,1.919-.9,3.008,6.192-2.944,10.48-5.056,15.711-8a3.17,3.17,0,0,0,1.449-1.345c.117-.319-.047-.575-.442-.9a5.842,5.842,0,0,0-1.664-.7c-.337-.129-.546-.256-.477-.448a2.357,2.357,0,0,1,1.263-.832,4.735,4.735,0,0,1,1.693-.257,8.182,8.182,0,0,1,4.282,1.6c1.547,1.023,2.175,2.112,1.709,3.391a2.606,2.606,0,0,1-2.27,1.665,11.449,11.449,0,0,0-2.752.7c-3.625,1.344-7.36,2.816-12.615,5.12-2.2.96-4.782,2.239-6.924,3.2-1.1,3.008-2.05,5.631-3.261,8.959-.652,1.792-1.682,2.688-2.961,2.688s-1.919-.7-1.337-2.3c.559-1.536,1.665-4.223,2.934-7.359-6.8,3.2-11.032,5.7-12.476,9.663-.955,2.623.6,4.671,6.555,4.671a73.919,73.919,0,0,0,9.122-.448c1.694-.256,3-.512,4.055-.767a12.4,12.4,0,0,1,2.316-.385c2.24,0,3.95,1.281,3.391,2.816-.372,1.024-1.31,1.664-3.945,2.048a90.608,90.608,0,0,1-12.328.64c-8.7,0-13.823-2.112-11.61-8.192,2.026-5.567,7.77-9.214,16.108-13.309Z" fill="#fff"/>
          <path id="Path_173" data-name="Path 173" d="M521.512,183.794c1.467-4.031,3.937-10.11,6.451-16.317,2.032-5.056,3.976-10.047,5.968-15.166.926-2.368.955-3.328.228-3.968a6.8,6.8,0,0,0-1.867-1.024c-.442-.192-.675-.256-.558-.576a1.619,1.619,0,0,1,1.071-.831,7.645,7.645,0,0,1,2.444-.385c1.343,0,3.058,1.088,4.3,2.432.843,1.024,1.512,2.176,1.046,3.456a4.145,4.145,0,0,1-1.549,1.791,4.942,4.942,0,0,0-1.641,2.048c-1.5,3.072-3.306,6.975-5.489,12.1-2.55,5.951-5.089,12.223-6.3,15.55-1.165,3.2-1.328,5.056-.614,6.08.8.959,2.647,1.343,5.079,1.343,3.776,0,10.206-1.664,15.849-4.159a72.506,72.506,0,0,0,12.8-7.551,2.066,2.066,0,0,1,1.019-.512.456.456,0,0,1,.493.576,2.849,2.849,0,0,1-.977,1.279,64.688,64.688,0,0,1-15.531,10.5,39.38,39.38,0,0,1-16.059,4.031C521.526,194.482,518.716,191.475,521.512,183.794Z" fill="#fff"/>
          <path id="Path_174" data-name="Path 174" d="M599.793,188.339a10.932,10.932,0,0,1-4.616,5.823c-2.089,1.344-4.648,2.048-8.425,2.048-5.375,0-9.919-2.112-8.241-6.719,1.77-4.864,8.158-6.592,12.767-6.592a46.886,46.886,0,0,1,6.364.448c1.263-3.647,2.661-7.488,3.762-10.686-1.52.127-3.975.192-5.7.192-6.016,0-7.778-1.665-6.777-4.416a8.674,8.674,0,0,1,2.346-3.456,2.127,2.127,0,0,1,1.216-.7c.256,0,.507.192.413.448a3.691,3.691,0,0,1-.558.831,5.567,5.567,0,0,0-.949,1.728c-.583,1.6.354,2.367,4.258,2.367,2.048,0,4.782-.127,6.9-.319,1.258-3.456,2.242-6.335,3.436-9.791a101.6,101.6,0,0,1-12.4.832c-3.648,0-6.33-.9-7.311-4.352a1.381,1.381,0,0,1,.047-.832.883.883,0,0,1,.675-.448.765.765,0,0,1,.651.321c1.256,1.472,3.559,2.175,6.632,2.175a109.4,109.4,0,0,0,12.834-1.152c.815-2.239,1.98-5.439,2.637-7.423.5-1.536.664-2.176.339-2.688a2.008,2.008,0,0,0-1.448-.767,13.321,13.321,0,0,0-1.576-.064c-.257,0-.379-.192-.262-.513.14-.383.552-.639,1.268-1.024a5.987,5.987,0,0,1,2.625-.7,6.441,6.441,0,0,1,3.774,1.408c1.524,1.088,1.745,2.24,1.489,2.944a3.049,3.049,0,0,1-1.328,1.536,4.732,4.732,0,0,0-1.815,2.176c-.938,2.047-1.467,3.327-1.909,4.543,2.634-.383,5.126-.895,7.511-1.471a15.713,15.713,0,0,0,3.514-1.216,6.6,6.6,0,0,1,3.136-.7c1.6,0,3.712.7,3.176,2.175-.419,1.152-1.31,1.664-4.358,2.3-4.294.9-9.251,1.856-14.261,2.432-1.275,3.327-2.37,6.335-3.628,9.791a46.042,46.042,0,0,0,6.163-1.28,11.69,11.69,0,0,0,2.465-1.152,6.166,6.166,0,0,1,3.033-.768c1.92,0,2.774.64,2.4,1.664-.35.96-1.287,1.6-2.968,2.176a67.227,67.227,0,0,1-12.264,2.752c-1.264,3.646-2.709,8.318-3.8,11.838a33.075,33.075,0,0,1,12.349,6.335,2.578,2.578,0,0,1,.97,3.136,3.588,3.588,0,0,1-2.869,2.432,2.306,2.306,0,0,1-1.937-.832A26.527,26.527,0,0,0,600,187.763Zm-10.878-2.817c-3.008,0-7.07.96-8.071,3.712s2.424,3.713,6.136,3.713c2.88,0,4.794-.512,6.343-1.6a8.946,8.946,0,0,0,3.108-4.671A26.983,26.983,0,0,0,588.915,185.522Z" fill="#fff"/>
          <path id="Path_175" data-name="Path 175" d="M688.623,154.934a9.8,9.8,0,0,0,3.5-.64,5.712,5.712,0,0,1,2.146-.447,8.242,8.242,0,0,1,4.387,1.663,1.9,1.9,0,0,1,.738,2.368,2.408,2.408,0,0,1-2.055,1.6,17.332,17.332,0,0,1-3.181-.576,39.4,39.4,0,0,0-7.488-.7c-3.392,0-6.463,0-10.076.256-1.764,4.671-3.039,8-4.367,11.646a19.6,19.6,0,0,1-1.473,7.04c-2.027,5.567-6.62,10.623-12.9,14.335a53.287,53.287,0,0,1-12.807,5.119,9.585,9.585,0,0,1-2.124.384c-.575,0-.779-.321-.639-.7.116-.32.426-.64,1.158-.9a54.68,54.68,0,0,0,12.4-5.951,29.121,29.121,0,0,0,9.48-9.343,8.831,8.831,0,0,1-4.95,1.473c-3.649,0-6.115-2.368-4.111-7.872,1.561-4.288,6.04-7.807,10.072-7.807a5.851,5.851,0,0,1,3.723,1.024c1-2.752,1.869-5.311,2.808-8.063a153.134,153.134,0,0,0-16.831,2.815,19.413,19.413,0,0,0-4.912,1.536,4.4,4.4,0,0,1-2.088.64,3.822,3.822,0,0,1-3.1-1.855c-1.186-1.664-1.506-3.072-1.109-4.161.278-.767.634-1.215.954-1.215a.466.466,0,0,1,.378.193c1.284,1.919,2.058,2.43,3.915,2.43a26.5,26.5,0,0,0,4.281-.511c6.517-1.024,13.329-1.984,19.473-2.688.862-2.367,1.467-4.031,2.219-6.271a9.217,9.217,0,0,0,.641-2.815c-.151-.641-.442-.9-1.419-1.024a15.6,15.6,0,0,0-1.787-.192c-.384,0-.593-.129-.5-.385.14-.383.338-.575.926-.96a7.744,7.744,0,0,1,3.665-1.28,5.549,5.549,0,0,1,3.973,1.92c.931.96,1.233,1.536.954,2.3a3.973,3.973,0,0,1-1.485,1.791,4.368,4.368,0,0,0-1.38,1.857c-.506,1.216-1.129,2.751-1.914,4.735C681.762,155.318,685.352,155.127,688.623,154.934Zm-29.444,18.3c-1.119,3.072.259,4.736,2.755,4.736,2.688,0,5.027-1.856,6.21-4.928.832-2.815.31-5.247-2.7-5.247C663.207,167.8,660.506,169.588,659.179,173.236Z" fill="#fff"/>
        </g>
      </g>
    </g>
  </g>
</svg>
